<?xml version="1.0" standalone="no"?> 
<!DOCTYPE svg PUBLIC "-//W3C//DTD SVG 1.1//EN" "http://www.w3.org/Graphics/SVG/1.1/DTD/svg11.dtd" >
<svg xmlns="http://www.w3.org/2000/svg">
<defs>
  <font id="VideoJS" horiz-adv-x="549">
    <font-face font-family="VideoJS"
      units-per-em="548" ascent="548"
      descent="0" />
    <missing-glyph horiz-adv-x="0" />
    <glyph glyph-name="play"
      unicode="&#xF101;"
      horiz-adv-x="474.5807192921981" d=" M474.5807192921981 274.0944501895898L0 548V0L474.5807192921981 273.9055498104102" />
    <glyph glyph-name="big-play"
      unicode="&#xF102;"
      horiz-adv-x="839.3579273754566" d=" M90.0256046303335 109.9775925032698A931.430083373527 931.430083373527 0 0 0 67.9439950389327 296.7952594225835A931.4904981740509 931.4904981740509 0 0 0 90.0256046303335 483.6204781919628A3276.4532212499143 3276.4532212499143 0 0 0 419.1880934334756 502.6964514573111A3276.21156204782 3276.21156204782 0 0 0 748.3430303865522 483.6204781919628A895.1963067594573 895.1963067594573 0 0 0 771.3761730862008 296.7952594225835A895.1434438089989 895.1434438089989 0 0 0 748.3430303865522 109.9775925032698A3230.0319988975402 3230.0319988975402 0 0 0 419.1880934334756 90.6222007854995A3230.2736580996348 3230.2736580996348 0 0 0 90.0256046303335 109.9775925032698z M506.1929580376215 296.5233928202305L332.2814028801764 396.9629986908289V196.1517536002205L506.1929580376215 296.5233928202305" />
    <glyph glyph-name="play-circle"
      unicode="&#xF103;"
      horiz-adv-x="548" d=" M228.3333333333333 171.25L365.3333333333333 274L228.3333333333333 376.75V171.25zM274 502.3333333333333C147.8458333333333 502.3333333333333 45.6666666666667 400.1541666666667 45.6666666666667 274S147.8458333333333 45.6666666666667 274 45.6666666666667S502.3333333333333 147.8458333333334 502.3333333333333 274S400.1541666666667 502.3333333333333 274 502.3333333333333zM274 91.3333333333334C173.305 91.3333333333334 91.3333333333333 173.305 91.3333333333333 274S173.305 456.6666666666667 274 456.6666666666667S456.6666666666666 374.6950000000001 456.6666666666666 274S374.695 91.3333333333334 274 91.3333333333334z" />
    <glyph glyph-name="pause"
      unicode="&#xF104;"
      horiz-adv-x="481.0674781998011" d=" M0 0H134.1857552525312V548H0z M346.8817229472699 0H480.9391935389478V548H346.8817229472699z" />
    <glyph glyph-name="volume-mute"
      unicode="&#xF105;"
      horiz-adv-x="548" d=" M300.2735555555555 334.6151933333333C311.4984222222222 331.2602155555556 321.3411111111111 324.3733777777778 328.3402888888889 314.9779177777778C335.3394666666666 305.5824577777778 339.1206666666667 294.1794911111112 339.1206666666667 282.46386C339.1206666666667 270.7479244444445 335.3394666666666 259.3452622222223 328.3402888888889 249.9498022222222C321.3411111111111 240.5537333333334 311.4984222222222 233.6672000000001 300.2735555555555 230.3122222222222V16.8966666666666L118.7333333333333 177.4606666666667H0V387.2536377777778H118.7333333333333L300.3648888888889 547.9089491911111L300.2735555555555 334.6151933333333z M505.4995555555555 182.8188888888889L335.0411111111111 353.2782466666667L365.1811111111111 383.4167244444445L535.6395555555556 212.9588888888889L505.4995555555555 182.8188888888889z M335.0411111111111 212.9588888888889L505.4995555555555 383.4167244444445L535.6395555555556 353.2782466666667L365.1811111111111 182.8188888888889L335.0411111111111 212.9588888888889z" />
    <glyph glyph-name="volume-low"
      unicode="&#xF106;"
      horiz-adv-x="349.929603301995" d=" M309.8443017656501 327.8135748681495A56.169685851868834 56.169685851868834 0 0 0 349.929603301995 274A56.169685851868834 56.169685851868834 0 0 0 309.8443017656501 220.1864251318504V-0.0314148131163L122.5177711534052 165.6503095620271H0V382.1297867461592H122.5177711534052L309.9385462049989 547.9057555606513z" />
    <glyph glyph-name="volume-mid"
      unicode="&#xF107;"
      horiz-adv-x="456.66666666666663" d=" M0 367.4041644444444V276.0708311111112V184.7368888888889H102.8261111111111L296.8333333333333 12.4152444444445V219.6079555555556C319.1491111111111 228.6408222222222 334.8888888888889 250.5172866666667 334.8888888888889 276.0708311111112C334.8888888888889 301.62468 319.1491111111111 323.5011444444445 296.8333333333333 332.5337066666667V539.7273615555556L102.8261111111111 367.4041644444444H0z M332.4320222222222 410.7640555555556C376.1045777777778 381.8896311111112 404.9111111111111 332.3440377777778 404.9111111111111 276.0699177777778C404.9111111111111 219.7967111111111 376.1045777777778 170.2514222222222 332.4320222222222 141.3748666666667L355.9077333333334 105.7944444444445C411.1156888888889 142.2973333333333 447.5333333333333 204.9306888888889 447.5333333333333 276.0699177777778C447.5333333333333 347.2085377777778 411.1156888888889 409.8425022222222 355.9077333333334 446.3444777777778L332.4320222222222 410.7640555555556z" />
    <glyph glyph-name="volume-high"
      unicode="&#xF108;"
      horiz-adv-x="548" d=" M0 367.4041644444444V184.7368888888889H102.8261111111111L296.8333333333333 12.4152444444445V219.6079555555556C319.1491111111111 228.6408222222222 334.8888888888889 250.5172866666667 334.8888888888889 276.0708311111112C334.8888888888889 301.62468 319.1491111111111 323.5011444444445 296.8333333333333 332.5337066666667V539.7273615555556L102.8261111111111 367.4041644444444H0z M332.4320222222222 410.7640555555556C376.1045777777778 381.8896311111112 404.9111111111111 332.3440377777778 404.9111111111111 276.0699177777778C404.9111111111111 219.7967111111111 376.1045777777778 170.2514222222222 332.4320222222222 141.3748666666667L355.9077333333334 105.7944444444445C411.1156888888889 142.2973333333333 447.5333333333333 204.9306888888889 447.5333333333333 276.0699177777778C447.5333333333333 347.2085377777778 411.1156888888889 409.8425022222222 355.9077333333334 446.3444777777778L332.4320222222222 410.7640555555556z M369.0627777777778 512.4204911111111C445.6944888888889 461.7542377777778 496.2444444444445 374.81556 496.2444444444445 276.0699177777778C496.2444444444445 177.3236666666667 445.6944888888889 90.3865111111111 369.0627777777778 39.7208666666667L392.5384888888888 4.1404444444445C480.7086444444444 62.4354666666667 538.8666666666666 162.4606888888889 538.8666666666666 276.0699177777778C538.8666666666666 389.6800600000001 480.7086444444444 489.7061955555556 392.5384888888888 548L369.0627777777778 512.4204911111111z" />
    <glyph glyph-name="fullscreen-enter"
      unicode="&#xF109;"
      horiz-adv-x="548" d=" M0 527.8105263157895C0 538.9608553684211 9.0391446315789 548 20.1894736842105 548H173.0526315789474V507.6210526315789H40.3789473684211V376.7932631578948H0V527.8105263157895z M0 24.4292631578948V175.4465263157895H40.3789473684211V44.6187368421053H173.0526315789474V4.2397894736841H20.1894736842105C9.0391446315789 4.2397894736841 0 13.2789052631579 0 24.4292631578948z M543.7602105263159 175.4465263157895V24.4292631578948C543.7602105263159 13.2789052631579 534.7210947368421 4.2397894736841 523.5707368421052 4.2397894736841H374.3416842105263V44.6187368421053H503.3812631578947V175.4465263157895H543.7602105263159z M374.3416842105263 548H523.5707368421052C534.7210947368421 548 543.7602105263159 538.9608553684211 543.7602105263159 527.8105263157895V376.7932631578948H503.3812631578947V507.6210526315789H374.3416842105263V548z" />
    <glyph glyph-name="fullscreen-exit"
      unicode="&#xF10A;"
      horiz-adv-x="548" d=" M356.748 170.3458000000001C356.748 180.93864 365.33516 189.5258 375.928 189.5258H521.1479999999999V151.1658H395.108V26.8794H356.748V170.3458000000001z M356.748 404.5336V548H395.108V423.7136000000001H521.1479999999999V385.3536000000001H375.928C365.33516 385.3536000000001 356.748 393.94076 356.748 404.5336z M160.9202 548V404.5336C160.9202 393.94076 152.33304 385.3536000000001 141.7402 385.3536000000001H-0.0273849574V423.7136000000001H122.5602V548H160.9202z M-0.0273849574 189.5258H141.7402C152.33304 189.5258 160.9202 180.93864 160.9202 170.3458000000001V26.8794H122.5602V151.1658H-0.0273849574V189.5258z" />
    <glyph glyph-name="square"
      unicode="&#xF10B;"
      horiz-adv-x="548" d=" M411 456.6666666666667H137C111.7691666666667 456.6666666666667 91.3333333333333 436.2308333333334 91.3333333333333 411V137C91.3333333333333 111.7691666666667 111.7691666666667 91.3333333333334 137 91.3333333333334H411C436.2308333333333 91.3333333333334 456.6666666666666 111.7691666666667 456.6666666666666 137V411C456.6666666666666 436.2308333333334 436.2308333333333 456.6666666666667 411 456.6666666666667zM411 137H137V411H411V137z" />
    <glyph glyph-name="spinner"
      unicode="&#xF10C;"
      horiz-adv-x="548" d=" M214.6333333333333 308.25L323.4341666666666 496.7391666666667C307.565 500.2783333333333 291.0108333333333 502.3333333333333 274 502.3333333333333C219.2 502.3333333333333 169.0808333333333 483.0391666666667 129.6933333333333 450.8441666666667L213.3775 305.9666666666667L214.6333333333333 308.25zM491.8299999999999 342.5C470.8233333333333 409.2875 419.905 462.6033333333334 354.9441666666666 487.2633333333333L271.3741666666667 342.5H491.8299999999999zM497.7666666666667 319.6666666666667H326.745L333.3666666666666 308.25L442.1675 119.875C479.3858333333333 160.5183333333334 502.3333333333333 214.5191666666667 502.3333333333333 274C502.3333333333333 289.6408333333334 500.735 304.9391666666667 497.7666666666667 319.6666666666667zM194.8825 274L105.8325 428.125C68.6141666666667 387.4816666666667 45.6666666666667 333.4808333333334 45.6666666666667 274C45.6666666666667 258.3591666666667 47.265 243.0608333333334 50.2333333333333 228.3333333333334H221.255L194.8825 274zM56.17 205.5C77.1766666666667 138.7125 128.095 85.3966666666668 193.0558333333333 60.7366666666667L276.6258333333334 205.5H56.17zM313.5016666666667 205.5L224.4516666666667 51.2608333333334C240.435 47.7216666666667 256.9891666666667 45.6666666666667 274 45.6666666666667C328.8 45.6666666666667 378.9191666666667 64.9608333333333 418.3066666666667 97.1558333333334L334.6225 242.0333333333334L313.5016666666667 205.5z" />
    <glyph glyph-name="subtitles"
      unicode="&#xF10D;"
      horiz-adv-x="548" d=" M456.6666666666666 456.6666666666667H91.3333333333333C66.1025 456.6666666666667 45.6666666666667 436.2308333333334 45.6666666666667 411V137C45.6666666666667 111.7691666666667 66.1025 91.3333333333334 91.3333333333333 91.3333333333334H456.6666666666666C481.8975 91.3333333333334 502.3333333333333 111.7691666666667 502.3333333333333 137V411C502.3333333333333 436.2308333333334 481.8975 456.6666666666667 456.6666666666666 456.6666666666667zM91.3333333333333 274H182.6666666666667V228.3333333333334H91.3333333333333V274zM319.6666666666667 137H91.3333333333333V182.6666666666667H319.6666666666667V137zM456.6666666666666 137H365.3333333333333V182.6666666666667H456.6666666666666V137zM456.6666666666666 228.3333333333334H228.3333333333333V274H456.6666666666666V228.3333333333334z" />
    <glyph glyph-name="captions"
      unicode="&#xF10E;"
      horiz-adv-x="548" d=" M433.8333333333333 456.6666666666667H114.1666666666667C88.9358333333333 456.6666666666667 68.5 436.2308333333334 68.5 411V137C68.5 111.7691666666667 88.9358333333333 91.3333333333334 114.1666666666667 91.3333333333334H433.8333333333333C459.0641666666667 91.3333333333334 479.5 111.7691666666667 479.5 137V411C479.5 436.2308333333334 459.0641666666667 456.6666666666667 433.8333333333333 456.6666666666667zM251.1666666666667 296.8333333333334H216.9166666666667V308.25H171.25V239.75H216.9166666666667V251.1666666666667H251.1666666666667V228.3333333333334C251.1666666666667 215.775 241.0058333333334 205.5 228.3333333333333 205.5H159.8333333333333C147.1608333333333 205.5 137 215.775 137 228.3333333333334V319.6666666666667C137 332.225 147.1608333333333 342.5 159.8333333333333 342.5H228.3333333333333C241.0058333333334 342.5 251.1666666666667 332.225 251.1666666666667 319.6666666666667V296.8333333333334zM411 296.8333333333334H376.75V308.25H331.0833333333333V239.75H376.75V251.1666666666667H411V228.3333333333334C411 215.775 400.8391666666667 205.5 388.1666666666667 205.5H319.6666666666667C306.9941666666667 205.5 296.8333333333333 215.775 296.8333333333333 228.3333333333334V319.6666666666667C296.8333333333333 332.225 306.9941666666667 342.5 319.6666666666667 342.5H388.1666666666667C400.8391666666667 342.5 411 332.225 411 319.6666666666667V296.8333333333334z" />
    <glyph glyph-name="chapters"
      unicode="&#xF10F;"
      horiz-adv-x="548" d=" M68.5 251.1666666666667H114.1666666666667V296.8333333333334H68.5V251.1666666666667zM68.5 159.8333333333334H114.1666666666667V205.5H68.5V159.8333333333334zM68.5 342.5H114.1666666666667V388.1666666666667H68.5V342.5zM159.8333333333333 251.1666666666667H479.5V296.8333333333334H159.8333333333333V251.1666666666667zM159.8333333333333 159.8333333333334H479.5V205.5H159.8333333333333V159.8333333333334zM159.8333333333333 388.1666666666667V342.5H479.5V388.1666666666667H159.8333333333333z" />
    <glyph glyph-name="share"
      unicode="&#xF110;"
      horiz-adv-x="548" d=" M411 180.7258333333334C393.6466666666666 180.7258333333334 378.0058333333334 173.99 366.1325 163.1441666666667L203.445 258.0166666666667C204.7008333333333 263.1541666666667 205.5 268.5200000000001 205.5 274S204.7008333333333 284.8458333333334 203.445 289.9833333333334L364.42 383.9425C376.6358333333333 372.5258333333334 392.9616666666667 365.4475 411 365.4475C448.7891666666667 365.4475 479.5 396.1583333333333 479.5 433.9475S448.7891666666667 502.4475 411 502.4475S342.5 471.7366666666667 342.5 433.9475C342.5 428.4675 343.2991666666667 423.1016666666667 344.555 417.9641666666667L183.58 324.005C171.3641666666667 335.4216666666666 155.0383333333333 342.5 137 342.5C99.2108333333333 342.5 68.5 311.7891666666667 68.5 274S99.2108333333333 205.5 137 205.5C155.0383333333333 205.5 171.3641666666667 212.5783333333333 183.58 223.995L346.2675 129.1225C345.1258333333333 124.3274999999999 344.4408333333333 119.3041666666666 344.4408333333333 114.1666666666666C344.4408333333333 77.405 374.2383333333334 47.6075 411 47.6075S477.5591666666666 77.405 477.5591666666666 114.1666666666666S447.7616666666667 180.7258333333333 411 180.7258333333333z" />
    <glyph glyph-name="cog"
      unicode="&#xF111;"
      horiz-adv-x="549" d=" M295.652501 4.348977L252.606422 4.348977C244.074787 4.3653439999999 235.898651 7.766476 229.8722 13.806021C223.845422 19.845566 220.460985 28.029231 220.460985 36.559884L220.460985 68.247036C220.460658 71.6318000000001 219.399073 74.9281800000001 217.425827 77.677892C215.452909 80.4243300000001 212.667517 82.486614 209.462139 83.566858C200.913482 86.463876 192.56909 89.930476 184.485593 93.943746C181.454036 95.456087 178.024098 95.973295 174.680907 95.4299C171.338043 94.883231 168.25182 93.298874 165.859571 90.899423L143.501798 68.47618C140.518688 65.487505 136.975161 63.114243 133.074172 61.49715C129.173182 59.876784 124.991002 59.045324 120.767576 59.045324C116.543823 59.045324 112.36197 59.876784 108.460653 61.49715C104.559663 63.114242 101.016136 65.487505 98.033354 68.47618L67.590119 98.952149C61.563013 104.998241 58.178577 113.18518 58.178577 121.719106C58.178577 130.256306 61.563014 138.443244 67.590119 144.486063L89.947892 166.909306C92.317554 169.325124 93.879652 172.4185490000001 94.418792 175.760758C94.958259 179.102967 94.448253 182.527012 92.959481 185.568062C88.955705 193.676438 85.499906 202.040143 82.615328 210.610078C81.542941 213.824622 79.486222 216.620162 76.73651 218.600609C73.987126 220.581056 70.683871 221.644932 67.295506 221.641659L35.673823 221.641659C27.147753 221.658026 18.976854 225.0558839999999 12.951058 231.088882C6.925589 237.119589 3.536897 245.294415 3.528386 253.820158L3.528386 296.931707C3.528386 305.4633419999999 6.912823 313.6463519999999 12.939601 319.6852429999999C18.966052 325.723806 27.142188 329.1252649999999 35.673823 329.1426139999999L67.295506 329.1426139999999C70.683871 329.1403229999999 73.987125 330.204526 76.73651 332.184646C79.486222 334.1644379999999 81.54294 336.9599779999999 82.615328 340.174195C85.49827 348.743802 88.954395 357.1101269999999 92.959481 365.216211C94.448253 368.2559519999999 94.958259 371.682616 94.418792 375.0241699999999C93.879652 378.365724 92.317554 381.4578399999999 89.947892 383.874968L67.590119 406.2654759999999C61.563013 412.3096039999999 58.178577 420.49687 58.178577 429.032433C58.178577 437.567996 61.563014 445.755262 67.590119 451.79939L98.033354 482.275359C101.016136 485.265343 104.559663 487.637624 108.460653 489.2563529999999C112.36197 490.875082 116.543823 491.708179 120.767576 491.708179C124.991002 491.708179 129.173182 490.875082 133.074172 489.2563529999999C136.975162 487.637624 140.518689 485.265343 143.501798 482.275359L165.859571 459.852116C168.254439 457.4585579999999 171.340335 455.8771459999999 174.682217 455.3308049999999C178.024099 454.784464 181.453054 455.301344 184.485593 456.8077929999999C192.568763 460.8226989999999 200.913155 464.289627 209.462139 467.184681C212.667517 468.2668889999999 215.452909 470.326881 217.425827 473.075283C219.399072 475.823358 220.460657 479.1213749999999 220.460985 482.5045019999999L220.460985 514.191654C220.460985 522.7232889999999 223.845422 530.906299 229.8722 536.9451899999999C235.898651 542.983753 244.074787 546.3852119999999 252.606422 546.402561L295.652501 546.402561C304.183808 546.3852119999999 312.359945 542.983753 318.385086 536.9451899999999C324.411537 530.9063 327.7963010000001 522.7232889999999 327.7963010000001 514.191654L327.7963010000001 482.5045019999999C327.799574 479.1213749999999 328.860177 475.823358 330.8340780000001 473.075283C332.804705 470.326881 335.5904240000001 468.266889 338.7951480000001 467.184681C347.3454410000001 464.289955 355.6895070000001 460.823027 363.771694 456.8077929999999C366.806197 455.301344 370.233516 454.784464 373.5757250000001 455.3308049999999C376.9179340000001 455.8771459999999 380.004812 457.4585579999999 382.3977160000001 459.852116L404.7554890000001 482.275359C407.7408900000001 485.265343 411.2827800000001 487.637624 415.1847520000001 489.2563529999999C419.0867240000001 490.875082 423.2669400000001 491.708179 427.4897110000001 491.708179C431.7157560000001 491.708179 435.8959720000001 490.875082 439.7979440000001 489.2563529999999C443.6999160000001 487.637624 447.2418060000001 485.265343 450.2239340000001 482.275359L480.6671690000001 451.79939C486.696894 445.755262 490.0783840000001 437.567996 490.0783840000001 429.032433C490.0783840000001 420.49687 486.6968940000001 412.3096039999999 480.6671690000001 406.2654759999999L458.309396 383.842233C455.9426800000001 381.425433 454.377963 378.33299 453.8411150000001 374.991435C453.3009930000001 371.649881 453.811654 368.223216 455.297807 365.183476C459.3045300000001 357.077065 462.76131 348.711067 465.64196 340.14146C466.715657 336.927244 468.771394 334.132031 471.521105 332.151911C474.270817 330.171791 477.573744 329.107588 480.961781 329.109879L512.583464 329.109879C521.11739 329.09253 529.291235 325.691398 535.3176860000001 319.652508C541.344137 313.613618 544.7289010000001 305.430607 544.7289010000001 296.898972L544.7289010000001 253.787423C544.735448 249.561706 543.9072610000001 245.376579 542.293442 241.471007C540.679623 237.565107 538.312907 234.015361 535.327506 231.023413C532.345378 228.034738 528.800215 225.658202 524.89497 224.037836C520.992998 222.41747 516.8095089999999 221.579463 512.5834639999999 221.576189L480.9617809999999 221.576189C477.5737439999999 221.579462 474.2708159999999 220.515586 471.5211049999999 218.535139C468.7713929999999 216.554692 466.7156569999999 213.759152 465.6419599999999 210.5446080000001C462.7580359999999 201.9746740000001 459.3045299999999 193.610968 455.2978069999999 185.5025920000001C453.8116529999999 182.4615420000001 453.3009929999999 179.037496 453.8411149999999 175.6952880000001C454.377963 172.353079 455.9426799999999 169.2596540000001 458.3093959999999 166.8438360000001L480.6671689999999 144.4205930000001C486.6968939999999 138.3777750000001 490.078384 130.1908360000001 490.078384 121.6536360000001C490.078384 113.1197100000001 486.696894 104.9294980000001 480.6671689999999 98.8866790000001L450.256669 68.4107100000001C447.274541 65.4220350000001 443.7326509999999 63.048773 439.8306789999999 61.43168C435.9287069999999 59.811314 431.748491 58.9798540000001 427.522446 58.9798540000001C423.2996749999999 58.9798540000001 419.119459 59.811314 415.217487 61.43168C411.315515 63.048772 407.7736249999999 65.4220350000001 404.788224 68.4107100000001L382.430451 90.8339530000001C380.037547 93.2268570000001 376.950669 94.8079410000001 373.6084599999999 95.3546100000001C370.2662509999999 95.9012790000001 366.838932 95.3840710000001 363.8044289999999 93.8782770000001C355.722241 89.8650080000001 347.378176 86.3984070000001 338.827883 83.5013890000001C335.62316 82.4211450000001 332.8374399999999 80.3588620000001 330.8668129999999 77.6124230000001C328.8929129999999 74.8627110000001 327.83231 71.5663310000001 327.8290359999999 68.1815670000001L327.8290359999999 36.4944150000001C327.8126689999999 27.970309 324.414811 19.796464 318.385086 13.7732870000001C312.3527429999999 7.7468360000001 304.178243 4.3587980000001 295.6525009999999 4.3489780000001zM177.251232 111.653196C182.219044 111.682657 187.126297 110.563132 191.589014 108.37973C199.004724 104.683987 206.660052 101.492357 214.503277 98.821209C220.881953 96.663995 226.422949 92.559068 230.345871 87.085833C234.268793 81.6125980000001 236.375596 75.046025 236.370031 68.3125050000001L236.370031 36.625353C236.412586 32.346933 238.128864 28.2551 241.151256 25.2271440000001C244.173975 22.1991880000001 248.262206 20.4740710000001 252.540954 20.4216960000001L295.587033 20.4216960000001C299.865453 20.4740710000001 303.954012 22.1991880000002 306.976404 25.2271440000001C309.999123 28.2551000000001 311.715401 32.346933 311.7579559999999 36.6253530000001L311.7579559999999 68.3125050000001C311.7520639999999 75.0460250000001 313.859194 81.6125980000001 317.7827699999999 87.0858330000001C321.7043819999999 92.5590680000001 327.2463609999999 96.6639950000001 333.6230719999999 98.8212090000001C341.466297 101.4923570000001 349.122934 104.6839870000001 356.537335 108.3797300000001C362.570333 111.3847720000001 369.3922359999999 112.4191870000001 376.04392 111.3323960000001C382.695603 110.2456050000001 388.833352 107.0932570000001 393.592972 102.3238170000001L415.950745 79.9333090000001C417.453266 78.4209680000001 419.237305 77.2196060000001 421.204658 76.4012390000001C423.168738 75.5828720000001 425.280123 75.1605950000001 427.407876 75.1605950000001C429.538902 75.1605950000001 431.650288 75.5828720000001 433.614368 76.4012390000001C435.581721 77.2196060000001 437.36576 78.4209680000001 438.865008 79.9333090000001L469.275508 110.4092780000001C472.277276 113.4699690000001 473.956565 117.5814420000001 473.956565 121.8664090000001C473.956565 126.1513760000001 472.277277 130.2628500000001 469.275508 133.3235400000001L446.917735 155.7467830000001C442.158115 160.5194970000001 439.015588 166.6637920000001 437.928797 173.3187490000001C436.842006 179.9704320000001 437.869875 186.7956090000001 440.861823 192.8351540000001C444.544472 200.2528280000001 447.726281 207.9094650000001 450.3876089999999 215.7494170000001C452.5284559999999 222.1294020000001 456.620288 227.6746540000001 462.0804299999999 231.6060870000001C467.5438449999999 235.5345740000002 474.1038709999999 237.6489050000002 480.8308439999999 237.6492330000001L512.4525269999999 237.6492330000001C514.5802799999999 237.6492330000001 516.6851189999999 238.0685640000001 518.649198 238.8833300000001C520.6132779999999 239.6980960000002 522.3973169999999 240.8919290000001 523.8998379999999 242.3970690000001C525.4023589999999 243.9022090000001 526.593901 245.6888670000001 527.4024469999999 247.6545830000001C528.214267 249.6202990000001 528.6299969999999 251.7264470000001 528.6234499999999 253.8528910000001L528.6234499999999 296.9317050000001C528.5808949999999 301.2104530000002 526.865599 305.3022850000001 523.8441889999999 308.3308960000001C520.8195059999999 311.3595070000001 516.7342209999999 313.0842960000001 512.4525269999999 313.1353620000001L480.8308439999999 313.1353620000001C474.1038709999999 313.1356890000001 467.5438449999999 315.2500210000001 462.0804299999999 319.1794900000001C456.6202889999999 323.1089590000002 452.5284559999999 328.6551920000001 450.3876089999999 335.0348500000001C447.729555 342.8767650000001 444.547745 350.5320930000001 440.861823 357.9491130000001C437.869875 363.9883310000002 436.842007 370.8141620000001 437.928797 377.4668270000001C439.015588 384.1191650000001 442.158115 390.2641150000001 446.917735 395.0374840000001L469.275508 417.4607270000002C472.277276 420.5201080000002 473.956565 424.6335460000002 473.956565 428.9178580000002C473.956565 433.2021700000002 472.277277 437.3152810000002 469.275508 440.3749890000002L438.832273 470.8509580000001C437.333026 472.3632990000002 435.548986 473.5636790000001 433.581633 474.3827010000001C431.617553 475.2017220000001 429.506168 475.6236720000002 427.375141 475.6236720000002C425.247388 475.6236720000002 423.136002 475.2017220000001 421.171923 474.3827010000001C419.20457 473.5636800000001 417.420531 472.3633000000002 415.91801 470.8509580000001L393.560237 448.4277150000002C388.800617 443.6579480000002 382.662868 440.5065820000002 376.011185 439.4197910000002C369.359502 438.3330000000002 362.537599 439.3657790000002 356.5046 442.3718030000001C349.090199 446.0672190000002 341.436836 449.2604850000002 333.590337 451.9303240000002C327.213625 454.0881930000002 321.671647 458.1927920000001 317.749052 463.6660270000001C313.826458 469.1392620000001 311.719327 475.7051810000002 311.72522 482.4390280000001L311.72522 514.1261800000001C311.682665 518.4049280000002 309.966387 522.4967600000001 306.943668 525.5253710000002C303.921277 528.5539820000001 299.832718 530.2787710000001 295.554297 530.3298370000001L252.606422 530.3298370000001C248.327674 530.2787710000001 244.239443 528.5539820000001 241.216724 525.5253710000002C238.194333 522.4967600000001 236.477727 518.4049280000002 236.435499 514.1261800000001L236.435499 482.4390280000001C236.441064 475.7051810000002 234.334261 469.1392630000001 230.411339 463.6660270000001C226.488417 458.1927920000001 220.947421 454.0881930000002 214.568745 451.9303240000002C206.72552 449.2595030000001 199.07052 446.0662370000001 191.654482 442.3718030000001C185.623448 439.3657790000002 178.799581 438.3330010000002 172.149207 439.4197910000002C165.498833 440.5065820000002 159.358793 443.6579480000002 154.598846 448.4277150000002L132.241073 470.8509580000001C130.740843 472.3632990000002 128.955822 473.5636790000001 126.989451 474.3827010000001C125.02308 475.2017220000001 122.913986 475.6236720000002 120.783941 475.6236720000002C118.653569 475.6236720000002 116.544475 475.2017220000001 114.578104 474.3827010000001C112.611733 473.5636800000001 110.827039 472.3633000000002 109.32681 470.8509580000001L78.883575 440.3749890000002C75.884425 437.3152800000002 74.20481 433.2021700000002 74.20481 428.9178580000002C74.20481 424.6335460000002 75.884425 420.5201080000002 78.883575 417.4607270000002L101.241348 395.0374840000001C106.00064 390.2641160000001 109.144805 384.1191650000001 110.230941 377.4668270000001C111.317077 370.8141620000001 110.291173 363.9883300000002 107.297261 357.9491130000001C103.614612 350.5317660000001 100.432475 342.8767660000001 97.771475 335.0348500000001C95.631283 328.6551920000001 91.541087 323.1089580000001 86.078654 319.1794900000001C80.615894 315.2500210000001 74.057177 313.1356900000001 67.32824 313.1353620000001L35.706557 313.1353620000001C31.427809 313.0842960000001 27.339578 311.3595070000001 24.316859 308.3308960000001C21.294468 305.3022850000001 19.578189 301.2104530000002 19.535634 296.9317050000001L19.535634 253.8201560000001C19.578189 249.5414080000001 21.294467 245.4495760000001 24.316859 242.4209650000002C27.339578 239.3923540000002 31.427809 237.6675650000002 35.706557 237.6164990000002L67.32824 237.6164990000002C74.057177 237.6161720000001 80.615894 235.5018400000002 86.078654 231.5733530000002C91.541087 227.6419200000002 95.631283 222.0966690000002 97.771475 215.7166830000002C100.433785 207.8767320000002 103.615921 200.2200940000001 107.297261 192.8024200000002C110.291173 186.7628750000002 111.317077 179.9376980000002 110.230941 173.2860150000001C109.144805 166.6310580000001 106.000641 160.4867630000001 101.241348 155.7140490000002L78.883575 133.3235410000002C75.884425 130.2628500000001 74.20481 126.1513770000002 74.20481 121.8664100000002C74.20481 117.5814430000002 75.884425 113.4699690000002 78.883575 110.4092790000001L109.32681 79.9333100000001C110.82704 78.4209690000001 112.611733 77.2196070000001 114.578104 76.4012400000001C116.544475 75.5828730000001 118.653569 75.1605960000002 120.783941 75.1605960000002C122.913985 75.1605960000002 125.02308 75.5828730000002 126.989451 76.4012400000001C128.955822 77.2196070000002 130.740843 78.4209690000001 132.241073 79.9333100000001L154.598846 102.3565530000001C160.628571 108.3175350000001 168.772954 111.6466500000001 177.251231 111.6204620000002L177.251231 111.6531970000002z M265.397487 351.350135C227.431827 351.350135 196.654697 320.572675 196.654697 282.607345C196.654697 244.641685 227.431827 213.863905 265.397487 213.863905C303.3631470000001 213.863905 334.1402770000001 244.641685 334.1402770000001 282.607345C334.1402770000001 320.572675 303.3631470000001 351.350135 265.397487 351.350135zM180.134887 285.271775C180.134897 329.896535 223.436827 365.205515 266.729707 366.537725C310.022587 367.869935 350.660087 331.228765 350.660087 285.271775C350.660087 239.314795 320.680287 197.344085 266.729687 197.344085C212.779087 197.344085 180.134877 240.647015 180.1348869999999 285.271775z" />
    <glyph glyph-name="circle"
      unicode="&#xF112;"
      horiz-adv-x="548" d=" M45.6666666666667 274C45.6666666666667 147.8949821219688 147.8949821219688 45.6666666666667 274 45.6666666666667C400.1050178780312 45.6666666666667 502.3333333333333 147.8949821219688 502.3333333333333 274C502.3333333333333 400.1050178780312 400.1050178780312 502.3333333333333 274 502.3333333333333C147.8949821219688 502.3333333333333 45.6666666666667 400.1050178780312 45.6666666666667 274z" />
    <glyph glyph-name="circle-outline"
      unicode="&#xF113;"
      horiz-adv-x="548" d=" M274 502.3333333333333C147.8458333333333 502.3333333333333 45.6666666666667 400.1541666666667 45.6666666666667 274S147.8458333333333 45.6666666666667 274 45.6666666666667S502.3333333333333 147.8458333333334 502.3333333333333 274S400.1541666666667 502.3333333333333 274 502.3333333333333zM274 91.3333333333334C173.305 91.3333333333334 91.3333333333333 173.305 91.3333333333333 274S173.305 456.6666666666667 274 456.6666666666667S456.6666666666666 374.6950000000001 456.6666666666666 274S374.695 91.3333333333334 274 91.3333333333334z" />
    <glyph glyph-name="circle-inner-circle"
      unicode="&#xF114;"
      horiz-adv-x="548" d=" M274 502.3333333333333C148.0741666666667 502.3333333333333 45.6666666666667 399.9258333333334 45.6666666666667 274S148.0741666666667 45.6666666666667 274 45.6666666666667S502.3333333333333 148.0741666666667 502.3333333333333 274S399.9258333333334 502.3333333333333 274 502.3333333333333zM274 91.3333333333334C173.305 91.3333333333334 91.3333333333333 173.305 91.3333333333333 274S173.305 456.6666666666667 274 456.6666666666667S456.6666666666666 374.6950000000001 456.6666666666666 274S374.695 91.3333333333334 274 91.3333333333334zM342.5 274C342.5 236.2108333333334 311.7891666666667 205.5 274 205.5S205.5 236.2108333333334 205.5 274S236.2108333333334 342.5 274 342.5S342.5 311.7891666666667 342.5 274z" />
    <glyph glyph-name="hd"
      unicode="&#xF115;"
      horiz-adv-x="548" d=" M433.8333333333333 479.5H114.1666666666667C88.8216666666667 479.5 68.5 458.95 68.5 433.8333333333334V114.1666666666667C68.5 89.05 88.8216666666667 68.5 114.1666666666667 68.5H433.8333333333333C458.95 68.5 479.5 89.05 479.5 114.1666666666667V433.8333333333334C479.5 458.95 458.95 479.5 433.8333333333333 479.5zM251.1666666666667 205.5H216.9166666666667V251.1666666666667H171.25V205.5H137V342.5H171.25V285.4166666666667H216.9166666666667V342.5H251.1666666666667V205.5zM296.8333333333333 342.5H388.1666666666667C400.725 342.5 411 332.225 411 319.6666666666667V228.3333333333334C411 215.775 400.725 205.5 388.1666666666667 205.5H296.8333333333333V342.5zM331.0833333333333 239.75H376.75V308.25H331.0833333333333V239.75z" />
    <glyph glyph-name="cancel"
      unicode="&#xF116;"
      horiz-adv-x="548" d=" M274 502.3333333333333C147.8458333333333 502.3333333333333 45.6666666666667 400.1541666666667 45.6666666666667 274S147.8458333333333 45.6666666666667 274 45.6666666666667S502.3333333333333 147.8458333333334 502.3333333333333 274S400.1541666666667 502.3333333333333 274 502.3333333333333zM388.1666666666667 192.1425L355.8575 159.8333333333334L274 241.6908333333334L192.1425 159.8333333333334L159.8333333333333 192.1425L241.6908333333334 274L159.8333333333333 355.8575L192.1425 388.1666666666667L274 306.3091666666667L355.8575 388.1666666666667L388.1666666666667 355.8575L306.3091666666666 274L388.1666666666667 192.1425z" />
    <glyph glyph-name="replay"
      unicode="&#xF117;"
      horiz-adv-x="578.4444444444445" d=" M60.6639044444444 434.2397666666667C112.30164 505.0191422222222 196.9171022222222 548.2675539977778 284.6589044444445 547.9987542742223C417.4603111111111 546.7254920444444 540.1179333333333 436.95602 555.1848888888888 305.3574733333334C573.6037777777777 144.3614666666667 423.5857333333333 -16.1264222222221 254.5252977777778 1.3030222222222C149.1981755555555 12.1534222222223 54.3542933333333 88.6755333333333 21.4049713333333 191.6264666666667L48.3558244444444 200.2574666666667C88.2654466666667 75.5326666666667 237.8597044444444 -2.603 364.5204666666667 42.0468222222223C481.0800666666667 83.1316000000001 553.3186444444444 221.6477333333334 519.3487333333334 341.1784066666667C484.5476888888889 463.5815133333333 343.7086444444444 546.4283968888889 216.2423222222222 510.5505933333333C163.3030866666667 495.6395133333334 116.0931911111111 462.2373911111112 83.6534177777778 417.7580577777778L144.8266577777778 373.8730000000001L10.865196 339.9758511111112L0 477.7430511111111L60.6639044444444 434.2397666666667V434.2397666666667z" />
    <glyph glyph-name="audio-description"
      unicode="&#xF118;"
      horiz-adv-x="548" d=" M243.2709888241641 139.835084421875L243.2709888241641 373.5466551844922C297.1939057382812 374.63540558225 338.6448273851563 376.7877989207813 369.1733669843751 355.2163895554687C398.4724481406251 334.5141546203125 421.3337847734375 294.2459108398438 417.2192231015625 242.4862143046875C412.8661947343751 187.7337104921875 372.9780892421875 141.7277297890625 321.1316376710937 137.0869596796876C295.3530177937501 134.7798133203125 244.0981919460937 137.0869596796876 244.0981919460937 137.0869596796876C244.0981919460937 137.0869596796876 243.1992016204766 138.53406178125 243.2709888241641 139.835084421875M295.4540974640625 198.4929380625C329.0938287164062 197.1444395703125 352.403629390625 216.295490828125 355.922027 247.0694658203125C360.6339910859375 288.2867713210938 333.2434591773438 315.09057354375 293.7992786382813 312.140676271875L293.7992786382813 201.24334578125C293.7609096476563 199.673901609375 294.4156584421875 198.8681810625 295.4540974640625 198.4929380625 M410.7645216171875 139.8598054296875C425.038210615625 135.889632125 429.3739101953125 151.696826984375 435.6119706898438 162.7728649140625C449.2280229765625 186.9312554687501 459.472964534375 217.994650453125 459.635517175 253.5075432109375C459.8719198796875 304.4482797546875 440.0025420875 341.8264275125 421.5313644609375 367.1552810871242L412.4226409977344 367.1552810871242C411.7951218201563 363.00981259125 414.80564610875 359.3267777042969 416.5607194795313 356.1568477828125C430.65246505 330.7248254898438 443.7107224789063 295.6273472359375 443.8967915976562 255.3403870078125C444.1096778242188 209.1285252734376 428.7385522523438 170.4877009609375 410.7645216171875 139.8598054296875 M455.0473248828125 139.8598054296875C469.32101388125 135.889632125 473.65382554375 151.6991099609375 479.8947739554687 162.7728649140625C493.5108262421875 186.9312554687501 503.7537049867188 217.994650453125 503.9183204406251 253.5075432109375C504.1547231453125 304.4482797546875 484.285345353125 341.8264275125 465.8141677265625 367.1552810871242L456.7054442633594 367.1552810871242C456.0779250857812 363.00981259125 459.0876242383594 359.3258647063282 460.8435227451562 356.1568477828125C474.935268315625 330.7248254898438 487.99393835 295.6273472359375 488.1795948632812 255.3403870078125C488.3924810898438 209.1285252734376 473.0213555179688 170.4877009609375 455.0473248828125 139.8598054296875 M499.04483528125 139.8598054296875C513.3185242796875 135.889632125 517.6513359421875 151.6991099609375 523.8922843539062 162.7728649140625C537.5083366406251 186.9312554687501 547.7512153851563 217.994650453125 547.9158308390626 253.5075432109375C548.15223354375 304.4482797546875 528.2828557515626 341.8264275125 509.811678125 367.1552810871242L500.7029546617969 367.1552810871242C500.0754354842188 363.00981259125 503.0851346367969 359.3263212053125 504.8410331435937 356.1568477828125C518.9327787140625 330.7248254898438 531.9910361429687 295.6273472359375 532.1771052617188 255.3403870078125C532.3899914882813 209.1285252734376 517.0188659164063 170.4877009609375 499.04483528125 139.8598054296875 M4.7913208007813 138.064791828125L77.6833875320313 138.064791828125L97.56225439375 168.551222015625L166.2428051953125 168.696172296875C166.2428051953125 168.696172296875 166.3125296328125 147.9181689765625 166.3125296328125 138.064791828125L218.4964632578125 138.064791828125L218.4964632578125 376.4200622578125L155.544861578125 376.4200622578125C149.4945209453125 366.2123635078125 4.7913208007813 138.064791828125 4.7913208007813 138.064791828125L4.7913208007813 138.064791828125zM168.1934368828125 293.5625179140625L168.1934368828125 217.400742609375L124.8962640625 217.6906421015625L168.1934368828125 293.5625179140625L168.1934368828125 293.5625179140625z" />
    <glyph glyph-name="audio"
      unicode="&#xF119;"
      horiz-adv-x="548" d=" M274 525.1666666666666C160.5183333333333 525.1666666666666 68.5 433.1483333333333 68.5 319.6666666666667V159.8333333333334C68.5 122.0441666666667 99.2108333333333 91.3333333333334 137 91.3333333333334H205.5V274H114.1666666666667V319.6666666666667C114.1666666666667 407.9175 185.7491666666667 479.5 274 479.5S433.8333333333333 407.9175 433.8333333333333 319.6666666666667V274H342.5V91.3333333333334H411C448.7891666666667 91.3333333333334 479.5 122.0441666666667 479.5 159.8333333333334V319.6666666666667C479.5 433.1483333333333 387.4816666666667 525.1666666666666 274 525.1666666666666z" />
    <glyph glyph-name="video_share"
      unicode="&#xF11A;"
      horiz-adv-x="517.5555555555555" d=" M423.3908888888889 18.7903111111111C405.0724666666667 18.7903111111111 387.1680888888889 24.2216000000001 371.9397777777778 34.3961333333333C356.7084222222222 44.5737111111111 344.8381333333333 59.0378666666667 337.8298222222222 75.9619333333334C330.8184666666667 92.8829555555556 328.9857111111112 111.5058222222222 332.5568444444445 129.4680444444445C336.1310222222222 147.4333111111112 344.9538222222223 163.9372444444445 357.9048888888889 176.8883111111111C370.8559555555555 189.8393777777778 387.3598888888889 198.6591333333333 405.3221111111111 202.2333111111111C423.2873777777778 205.8074888888889 441.9102444444444 203.9747333333334 458.8312666666666 196.9633777777778C475.7553333333333 189.9550666666667 490.2194888888889 178.0847777777779 500.3940222222222 162.8564666666667C510.5716 147.6251111111112 516.002888888889 129.7176888888889 516.002888888889 111.4023111111112C516.002888888889 86.8397333333334 506.2454444444444 63.2848666666667 488.8768888888889 45.9163111111111C471.5083333333333 28.5477555555556 447.9534666666667 18.7903111111111 423.3908888888889 18.7903111111111z M423.3908888888889 362.7769133333334C405.0724666666667 362.7769133333334 387.1680888888889 368.2075933333333 371.9397777777778 378.3839533333334C356.7084222222222 388.5603133333334 344.8381333333333 403.0250777777778 337.8298222222222 419.9476222222222C330.8184666666667 436.8701666666667 328.9857111111112 455.4909022222222 332.5568444444445 473.4558644444444C336.1310222222222 491.4208266666667 344.9538222222223 507.9226288888889 357.9048888888889 520.8747611111111C370.8559555555555 533.8267715555555 387.3598888888889 542.6468924444445 405.3221111111111 546.2203547777777C423.2873777777778 549.7938079777778 441.9102444444444 547.9601339133334 458.8312666666666 540.9505584444445C475.7553333333333 533.9409686666667 490.2194888888889 522.0717453333333 500.3940222222222 506.8418511111111C510.5716 491.6117133333333 516.002888888889 473.7055088888889 516.002888888889 455.3886088888889C516.002888888889 430.82664 506.2454444444444 407.27086 488.8768888888889 389.9026088888889C471.5083333333333 372.5346622222222 447.9534666666667 362.7769133333334 423.3908888888889 362.7769133333334z M92.612 190.7679333333334C74.2951 190.7679333333334 56.3898088888889 196.1992222222222 41.1599755555556 206.3768C25.9298682222222 216.5513333333333 14.0597315555556 231.0154888888889 7.0501417777778 247.9395555555556C0.04055474 264.8621 -1.7940484888889 283.4828355555556 1.7794047111111 301.4477977777778C5.352864 319.4127600000001 14.1738982222222 335.9145622222223 27.1259391111111 348.8665422222223C40.07798 361.8185222222222 56.5797822222222 370.6388866666667 74.5447444444445 374.2121511111111C92.5097066666667 377.78572 111.1304422222222 375.9520511111112 128.0529866666667 368.9425222222223C144.9758355555556 361.9326888888889 159.4396866666667 350.0636177777779 169.6160466666667 334.8337844444445C179.7924066666667 319.6036466666667 185.2246088888889 301.6974422222222 185.2246088888889 283.3805422222223C185.2246088888889 258.8182688888889 175.4671644444444 235.2624888888889 158.0989133333334 217.8939333333333C140.7306622222222 200.5253777777778 117.1742733333333 190.7679333333334 92.612 190.7679333333334z M412.7079333333334 477.2553311111111L432.4846444444445 439.49874L134.40796 283.3714088888889L432.7708222222222 121.2389111111111L412.4217555555556 83.7892000000001L43.8680088888889 284.0631066666667L412.7079333333334 477.2553311111111z" />
    <glyph glyph-name="next-item"
      unicode="&#xF11B;"
      horiz-adv-x="548" d=" M137 137L331.0833333333333 274L137 411V137zM365.3333333333333 411V137H411V411H365.3333333333333z" />
    <glyph glyph-name="previous-item"
      unicode="&#xF11C;"
      horiz-adv-x="548" d=" M137 411H182.6666666666667V137H137zM216.9166666666667 274L411 137V411z" />
    <glyph glyph-name="adilo-logo"
      unicode="&#xF11D;"
      horiz-adv-x="1903.578947368421" d=" M802.2143157894736 253.6086315789474L851.0728421052631 388.0696610526316H851.8804210526316L899.9313684210526 253.6086315789474H802.2143157894736zM830.8833684210526 422.7955557894737L718.6298947368421 134.4907368421053H757.7974736842106L790.1006315789473 221.3054736842106H912.0450526315788L943.5406315789475 134.4907368421053H985.9385263157894L873.2812631578947 422.7955557894737H830.8833684210526z M1052.7397263157895 166.7938947368421V390.4923978947369H1117.346042105263C1135.1127789473683 390.4923978947369 1150.0529894736842 387.9352568421053 1162.1666736842105 382.8203978947369C1174.2803578947369 377.9749242105263 1184.1068631578946 370.7067136842105 1191.6433052631578 361.0157663157895C1199.4508631578947 351.5942042105263 1204.9683578947368 340.0187136842105 1208.1986736842105 326.2898715789474C1211.7001052631579 312.8304147368422 1213.4479368421053 297.4864147368421 1213.4479368421053 280.2578715789474C1213.4479368421053 262.4911347368422 1211.564547368421 247.2806736842106 1207.7948842105263 234.6305263157895C1204.2963368421053 222.2457263157895 1199.719094736842 211.8827578947368 1194.0660421052633 203.5387368421053C1188.412989473684 195.1918315789474 1181.952357894737 188.5985263157895 1174.684147368421 183.753052631579C1167.687052631579 178.9075789473684 1160.5515157894738 175.1379157894737 1153.283305263158 172.446947368421C1146.015094736842 170.0242105263158 1139.1506736842105 168.409052631579 1132.6900421052633 167.6014736842105C1126.2294105263156 167.0621263157895 1120.8474736842104 166.7938947368421 1116.5384631578947 166.7938947368421H1052.7397263157895zM1014.3797263157894 422.7955557894737V134.4907368421053H1113.308147368421C1137.2672842105262 134.4907368421053 1157.996105263158 137.8537263157895 1175.4917263157895 144.5854736842105C1192.9902315789473 151.3143368421053 1207.391094736842 161.0052842105263 1218.6972 173.6583157894737C1230.0033052631577 186.5795789473684 1238.3502105263158 202.3273684210527 1243.732147368421 220.9016842105264C1249.1169684210524 239.7442315789474 1251.8079368421052 261.2797663157895 1251.8079368421052 285.5071347368422C1251.8079368421052 331.8085200000001 1239.829810526316 366.2650294736842 1215.8706736842105 388.8772400000001C1191.9144210526315 411.4894505263158 1157.724989473684 422.7955557894737 1113.308147368421 422.7955557894737H1014.3797263157894z M1300.303052631579 422.7955557894737V134.4907368421053H1338.663052631579V422.7955557894737H1300.303052631579z M1403.1857263157895 422.7955557894737V134.4907368421053H1594.178147368421V166.7938947368421H1441.5457263157896V422.7955557894737H1403.1857263157895z M1649.7655368421051 278.6427136842106C1649.7655368421051 293.1791347368421 1651.6489263157894 307.4464589473685 1655.418589473684 321.4443978947369C1659.188252631579 335.7117221052632 1665.1095368421054 348.498292631579 1673.1853263157893 359.8043978947369C1681.2611157894735 371.1105031578948 1691.6240842105262 380.1285642105263 1704.2771157894736 386.858292631579C1716.9301473684209 393.8574063157895 1732.0030315789475 397.3568189473684 1749.5015368421052 397.3568189473684C1767.0000421052632 397.3568189473684 1782.0729263157893 393.8574063157895 1794.725957894737 386.858292631579C1807.3789894736844 380.1285642105263 1817.7419578947367 371.1105031578948 1825.817747368421 359.8043978947369C1833.8935368421053 348.498292631579 1839.8148210526315 335.7117221052632 1843.584484210526 321.4443978947369C1847.3541473684213 307.4464589473685 1849.237536842105 293.1791347368421 1849.237536842105 278.6427136842106C1849.237536842105 264.1062926315789 1847.3541473684213 249.7034105263158 1843.584484210526 235.4381052631579C1839.8148210526315 221.4381473684211 1833.8935368421053 208.788 1825.817747368421 197.4818947368421C1817.7419578947367 186.1757894736842 1807.3789894736844 177.021305263158 1794.725957894737 170.0242105263158C1782.0729263157893 163.2924631578948 1767.0000421052632 159.9294736842106 1749.5015368421052 159.9294736842106C1732.0030315789475 159.9294736842106 1716.9301473684209 163.2924631578948 1704.2771157894736 170.0242105263158C1691.6240842105262 177.021305263158 1681.2611157894735 186.1757894736842 1673.1853263157893 197.4818947368421C1665.1095368421054 208.788 1659.188252631579 221.4381473684211 1655.418589473684 235.4381052631579C1651.6489263157894 249.7034105263158 1649.7655368421051 264.1062926315789 1649.7655368421051 278.6427136842106zM1611.4055368421052 278.6427136842106C1611.4055368421052 258.9905684210526 1614.2320631578948 240.0124631578948 1619.8851157894735 221.7092631578947C1625.8064 203.6714105263158 1634.5570947368421 187.6553894736842 1646.1314315789473 173.6583157894737C1657.7057684210527 159.6583578947369 1672.1095157894738 148.4878105263158 1689.3369052631579 140.1437894736843C1706.564294736842 132.0680000000001 1726.6210947368422 128.0301052631579 1749.5015368421052 128.0301052631579C1772.3819789473685 128.0301052631579 1792.4387789473683 132.0680000000001 1809.6661684210524 140.1437894736843C1826.893557894737 148.4878105263158 1841.2973052631576 159.6583578947369 1852.8716421052632 173.6583157894737C1864.445978947368 187.6553894736842 1873.0611157894737 203.6714105263158 1878.7141684210524 221.7092631578947C1884.6354526315788 240.0124631578948 1887.5975368421052 258.9905684210526 1887.5975368421052 278.6427136842106C1887.5975368421052 298.2939936842105 1884.6354526315788 317.1374063157895 1878.7141684210524 335.17324C1873.0611157894737 353.4784589473684 1864.445978947368 369.6300378947369 1852.8716421052632 383.6279768421053C1841.2973052631576 397.6262042105264 1826.893557894737 408.7976168421053 1809.6661684210524 417.1425031578948C1792.4387789473683 425.4876778947369 1772.3819789473685 429.6599768421053 1749.5015368421052 429.6599768421053C1726.6210947368422 429.6599768421053 1706.564294736842 425.4876778947369 1689.3369052631579 417.1425031578948C1672.1095157894738 408.7976168421053 1657.7057684210527 397.6262042105264 1646.1314315789473 383.6279768421053C1634.5570947368421 369.6300378947369 1625.8064 353.4784589473684 1619.8851157894735 335.17324C1614.2320631578948 317.1374063157895 1611.4055368421052 298.2939936842105 1611.4055368421052 278.6427136842106z M432.6315789473684 547.971833896H115.3684210526316C51.6521726315789 547.971833896 0 496.3195621052632 0 432.6033136842106V115.3395789473685C0 51.6244842105263 51.6521726315789 -0.0288421052632 115.3684210526316 -0.0288421052632H432.6315789473684C496.3466736842105 -0.0288421052632 548 51.6244842105263 548 115.3395789473685V432.6033136842106C548 496.3195621052632 496.3466736842105 547.971833896 432.6315789473684 547.971833896z M272.6732631578947 101.1233052631579C371.2901894736842 101.1233052631579 451.2347368421052 181.067852631579 451.2347368421052 279.6836252631579C451.2347368421052 378.3005515789474 371.2901894736842 458.2450989473684 272.6732631578947 458.2450989473684C174.0566252631579 458.2450989473684 94.1117894736842 378.3005515789474 94.1117894736842 279.6836252631579C94.1117894736842 181.067852631579 174.0566252631579 101.1233052631579 272.6732631578947 101.1233052631579z" />
  </font>
</defs>
</svg>
