<svg xmlns="http://www.w3.org/2000/svg" width="36" height="36" viewBox="0 0 36 36">
  <g id="Group_13028" data-name="Group 13028" transform="translate(-1480 -67)">
    <circle id="Ellipse_4183" data-name="Ellipse 4183" cx="13" cy="13" r="13" transform="translate(1485 74.91)" fill="#21455e"/>
    <g id="noun_profile_1995071" transform="translate(1480 67)">
      <path id="Path_9196" data-name="Path 9196" d="M20.5,2.5a18,18,0,1,0,18,18A18.016,18.016,0,0,0,20.5,2.5Zm0,10.307a5.646,5.646,0,1,1-5.646,5.646A5.66,5.66,0,0,1,20.5,12.807ZM10.647,31.414V30.58a4.358,4.358,0,0,1,4.358-4.358H25.995a4.358,4.358,0,0,1,4.358,4.358v.834a14.7,14.7,0,0,1-19.705,0Z" transform="translate(-2.5 -2.5)" fill="#e8ecee"/>
    </g>
  </g>
</svg>
