<svg xmlns="http://www.w3.org/2000/svg" xmlns:xlink="http://www.w3.org/1999/xlink" width="111.146" height="72.565" viewBox="0 0 111.146 72.565">
  <defs>
    <filter id="Path_9682" x="0" y="0" width="111.146" height="72.565" filterUnits="userSpaceOnUse">
      <feOffset dy="3" input="SourceAlpha"/>
      <feGaussianBlur stdDeviation="3" result="blur"/>
      <feFlood flood-opacity="0.161"/>
      <feComposite operator="in" in2="blur"/>
      <feComposite in="SourceGraphic"/>
    </filter>
  </defs>
  <g id="Group_13420" data-name="Group 13420" transform="translate(-612 -868)">
    <g transform="matrix(1, 0, 0, 1, 612, 868)" filter="url(#Path_9682)">
      <path id="Path_9682-2" data-name="Path 9682" d="M-11441.519,7630.572a123.338,123.338,0,0,1-2.924-24.738,123.346,123.346,0,0,1,2.924-24.739,433.861,433.861,0,0,1,43.587-2.526,433.829,433.829,0,0,1,43.586,2.526,118.54,118.54,0,0,1,3.05,24.739,118.533,118.533,0,0,1-3.05,24.738,427.714,427.714,0,0,1-43.586,2.563A427.746,427.746,0,0,1-11441.519,7630.572Z" transform="translate(11453.44 -7572.57)" fill="#00acdc" opacity="0.9"/>
    </g>
    <path id="Path_9791" data-name="Path 9791" d="M23.029-26.7,0-40v26.591L23.029-26.7" transform="translate(656 928)" fill="#fff" fill-rule="evenodd"/>
  </g>
</svg>
