<svg width="9" height="9" viewBox="0 0 9 9" fill="none" xmlns="http://www.w3.org/2000/svg">
<path fill-rule="evenodd" clip-rule="evenodd" d="M0.424736 0.424759C0.659051 0.190445 1.03895 0.190445 1.27326 0.424759L8.27326 7.42476C8.50758 7.65907 8.50758 8.03897 8.27326 8.27329C8.03895 8.5076 7.65905 8.5076 7.42474 8.27329L0.424736 1.27329C0.190422 1.03897 0.190422 0.659074 0.424736 0.424759Z" fill="white"/>
<path fill-rule="evenodd" clip-rule="evenodd" d="M8.27326 0.424759C8.50758 0.659074 8.50758 1.03897 8.27326 1.27329L1.27326 8.27329C1.03895 8.5076 0.659047 8.5076 0.424733 8.27329C0.190418 8.03897 0.190418 7.65907 0.424733 7.42476L7.42473 0.424759C7.65905 0.190445 8.03895 0.190445 8.27326 0.424759Z" fill="white"/>
</svg>
