<svg width="16" height="11" viewBox="0 0 16 11" fill="none" xmlns="http://www.w3.org/2000/svg">
<path d="M14 0H2C0.89543 0 0 0.89543 0 2V9C0 10.1046 0.89543 11 2 11H14C15.1046 11 16 10.1046 16 9V2C16 0.89543 15.1046 0 14 0Z" fill="#011A22"/>
<path d="M3.564 3.00201V8.00001H4.229V5.71101H6.861V8.00001H7.526V3.00201H6.861V5.15101H4.229V3.00201H3.564Z" fill="white"/>
<path d="M9.28075 7.44001V3.56201H10.4008C10.7088 3.56201 10.9678 3.60635 11.1778 3.69501C11.3878 3.77901 11.5581 3.90501 11.6888 4.07301C11.8241 4.23635 11.9198 4.43701 11.9758 4.67501C12.0364 4.90835 12.0668 5.17435 12.0668 5.47301C12.0668 5.78101 12.0341 6.04468 11.9688 6.26401C11.9081 6.47868 11.8288 6.65835 11.7308 6.80301C11.6328 6.94768 11.5208 7.06201 11.3948 7.14601C11.2734 7.23001 11.1498 7.29535 11.0238 7.34201C10.8978 7.38401 10.7788 7.41201 10.6668 7.42601C10.5548 7.43535 10.4614 7.44001 10.3868 7.44001H9.28075ZM8.61575 3.00201V8.00001H10.3308C10.7461 8.00001 11.1054 7.94168 11.4088 7.82501C11.7121 7.70835 11.9618 7.54035 12.1578 7.32101C12.3538 7.09701 12.4984 6.82401 12.5918 6.50201C12.6851 6.17535 12.7318 5.80201 12.7318 5.38201C12.7318 4.57935 12.5241 3.98201 12.1088 3.59001C11.6934 3.19801 11.1008 3.00201 10.3308 3.00201H8.61575Z" fill="white"/>
</svg>
