<svg width="66" height="19" viewBox="0 0 66 19" fill="none" xmlns="http://www.w3.org/2000/svg">
<path d="M27.814 10.207L29.508 5.54503H29.536L31.202 10.207H27.814ZM28.808 4.34103L24.916 14.337H26.274L27.394 11.327H31.622L32.714 14.337H34.184L30.278 4.34103H28.808Z" fill="white"/>
<path d="M36.5001 13.217V5.46103H38.7401C39.3561 5.46103 39.8741 5.54969 40.2941 5.72703C40.7141 5.89503 41.0548 6.14703 41.3161 6.48303C41.5868 6.80969 41.7781 7.21103 41.8901 7.68703C42.0115 8.15369 42.0721 8.68569 42.0721 9.28303C42.0721 9.89903 42.0068 10.4264 41.8761 10.865C41.7548 11.2944 41.5961 11.6537 41.4001 11.943C41.2041 12.2324 40.9801 12.461 40.7281 12.629C40.4855 12.797 40.2381 12.9277 39.9861 13.021C39.7341 13.105 39.4961 13.161 39.2721 13.189C39.0481 13.2077 38.8615 13.217 38.7121 13.217H36.5001ZM35.1701 4.34103V14.337H38.6001C39.4308 14.337 40.1495 14.2204 40.7561 13.987C41.3628 13.7537 41.8621 13.4177 42.2541 12.979C42.6461 12.531 42.9355 11.985 43.1221 11.341C43.3088 10.6877 43.4021 9.94103 43.4021 9.10103C43.4021 7.49569 42.9868 6.30103 42.1561 5.51703C41.3255 4.73303 40.1401 4.34103 38.6001 4.34103H35.1701Z" fill="white"/>
<path d="M45.0835 4.34103V14.337H46.4135V4.34103H45.0835Z" fill="white"/>
<path d="M48.6506 4.34103V14.337H55.2726V13.217H49.9806V4.34103H48.6506Z" fill="white"/>
<path d="M57.1999 9.33903C57.1999 8.83503 57.2652 8.34036 57.3959 7.85503C57.5266 7.36036 57.7319 6.91703 58.0119 6.52503C58.2919 6.13303 58.6512 5.82036 59.0899 5.58703C59.5286 5.34436 60.0512 5.22303 60.6579 5.22303C61.2646 5.22303 61.7872 5.34436 62.2259 5.58703C62.6646 5.82036 63.0239 6.13303 63.3039 6.52503C63.5839 6.91703 63.7892 7.36036 63.9199 7.85503C64.0506 8.34036 64.1159 8.83503 64.1159 9.33903C64.1159 9.84303 64.0506 10.3424 63.9199 10.837C63.7892 11.3224 63.5839 11.761 63.3039 12.153C63.0239 12.545 62.6646 12.8624 62.2259 13.105C61.7872 13.3384 61.2646 13.455 60.6579 13.455C60.0512 13.455 59.5286 13.3384 59.0899 13.105C58.6512 12.8624 58.2919 12.545 58.0119 12.153C57.7319 11.761 57.5266 11.3224 57.3959 10.837C57.2652 10.3424 57.1999 9.84303 57.1999 9.33903ZM55.8699 9.33903C55.8699 10.0204 55.9679 10.6784 56.1639 11.313C56.3692 11.9384 56.6726 12.4937 57.0739 12.979C57.4752 13.4644 57.9746 13.8517 58.5719 14.141C59.1692 14.421 59.8646 14.561 60.6579 14.561C61.4512 14.561 62.1466 14.421 62.7439 14.141C63.3412 13.8517 63.8406 13.4644 64.2419 12.979C64.6432 12.4937 64.9419 11.9384 65.1379 11.313C65.3432 10.6784 65.4459 10.0204 65.4459 9.33903C65.4459 8.65769 65.3432 8.00436 65.1379 7.37903C64.9419 6.74436 64.6432 6.18436 64.2419 5.69903C63.8406 5.21369 63.3412 4.82636 62.7439 4.53703C62.1466 4.24769 61.4512 4.10303 60.6579 4.10303C59.8646 4.10303 59.1692 4.24769 58.5719 4.53703C57.9746 4.82636 57.4752 5.21369 57.0739 5.69903C56.6726 6.18436 56.3692 6.74436 56.1639 7.37903C55.9679 8.00436 55.8699 8.65769 55.8699 9.33903Z" fill="white"/>
<path opacity="0.382" d="M15 0.000976562H4C1.79086 0.000976562 0 1.79184 0 4.00098V15.001C0 17.2101 1.79086 19.001 4 19.001H15C17.2091 19.001 19 17.2101 19 15.001V4.00098C19 1.79184 17.2091 0.000976562 15 0.000976562Z" fill="white"/>
<path d="M9.454 15.4939C12.8732 15.4939 15.645 12.7221 15.645 9.30294C15.645 5.88374 12.8732 3.11194 9.454 3.11194C6.03481 3.11194 3.263 5.88374 3.263 9.30294C3.263 12.7221 6.03481 15.4939 9.454 15.4939Z" fill="white"/>
</svg>
