<svg width="19" height="18" viewBox="0 0 19 18" fill="none" xmlns="http://www.w3.org/2000/svg">
<path fill-rule="evenodd" clip-rule="evenodd" d="M1.99261 3.73665C3.68874 1.41178 6.46808 -0.00878827 9.35011 4.0918e-05C13.7122 0.0418634 17.7411 3.64743 18.236 7.97001C18.841 13.2582 13.9134 18.5297 8.36032 17.9572C4.90067 17.6008 1.78536 15.0873 0.703083 11.7057L1.58833 11.4222C2.89923 15.519 7.81291 18.0855 11.9733 16.6189C15.8019 15.2694 18.1747 10.7196 17.0589 6.79341C15.9158 2.77287 11.2897 0.051622 7.10285 1.23009C5.36397 1.71987 3.81328 2.81702 2.74774 4.27802L4.75708 5.7195L0.356886 6.83291L0 2.30771L1.99261 3.73665V3.73665Z" fill="white"/>
</svg>
