<svg width="549" height="548" xmlns="http://www.w3.org/2000/svg">
 <g>
  <g id="svg_30">
   <path id="svg_28" stroke-width="0.8" stroke="white" fill="white" d="m295.652501,543.651023l-43.046079,0c-8.531635,-0.016367 -16.707771,-3.417499 -22.734222,-9.457044c-6.026778,-6.039545 -9.411215,-14.22321 -9.411215,-22.753863l0,-31.687152c-0.000327,-3.384764 -1.061912,-6.681144 -3.035158,-9.430856c-1.972918,-2.746438 -4.75831,-4.808722 -7.963688,-5.888966c-8.548657,-2.897018 -16.893049,-6.363618 -24.976546,-10.376888c-3.031557,-1.512341 -6.461495,-2.029549 -9.804686,-1.486154c-3.342864,0.546669 -6.429087,2.131026 -8.821336,4.530477l-22.357773,22.423243c-2.98311,2.988675 -6.526637,5.361937 -10.427626,6.97903c-3.90099,1.620366 -8.08317,2.451826 -12.306596,2.451826c-4.223753,0 -8.405606,-0.83146 -12.306923,-2.451826c-3.90099,-1.617092 -7.444517,-3.990355 -10.427299,-6.97903l-30.443235,-30.475969c-6.027106,-6.046092 -9.411542,-14.233031 -9.411542,-22.766957c0,-8.5372 3.384437,-16.724138 9.411542,-22.766957l22.357773,-22.423243c2.369662,-2.415818 3.93176,-5.509243 4.4709,-8.851452c0.539467,-3.342209 0.029461,-6.766254 -1.459311,-9.807304c-4.003776,-8.108376 -7.459575,-16.472081 -10.344153,-25.042016c-1.072387,-3.214544 -3.129106,-6.010084 -5.878818,-7.990531c-2.749384,-1.980447 -6.052639,-3.044323 -9.441004,-3.04105l-31.621683,0c-8.52607,-0.016367 -16.696969,-3.414225 -22.722765,-9.447223c-6.025469,-6.030707 -9.414161,-14.205533 -9.422672,-22.731276l0,-43.111549c0,-8.531635 3.384437,-16.714645 9.411215,-22.753536c6.026451,-6.038563 14.202587,-9.440022 22.734222,-9.457371l31.621683,0c3.388365,0.002291 6.691619,-1.061912 9.441004,-3.042032c2.749712,-1.979792 4.80643,-4.775332 5.878818,-7.989549c2.882942,-8.569607 6.339067,-16.935932 10.344153,-25.042016c1.488772,-3.039741 1.998778,-6.466405 1.459311,-9.807959c-0.53914,-3.341554 -2.101238,-6.43367 -4.4709,-8.850798l-22.357773,-22.390508c-6.027106,-6.044128 -9.411542,-14.231394 -9.411542,-22.766957c0,-8.535563 3.384437,-16.722829 9.411542,-22.766957l30.443235,-30.475969c2.982782,-2.989984 6.526309,-5.362265 10.427299,-6.980994c3.901317,-1.618729 8.08317,-2.451826 12.306923,-2.451826c4.223426,0 8.405606,0.833097 12.306596,2.451826c3.90099,1.618729 7.444517,3.99101 10.427626,6.980994l22.357773,22.423243c2.394868,2.393558 5.480764,3.97497 8.822646,4.521311c3.341882,0.546341 6.770837,0.029461 9.803376,-1.476988c8.08317,-4.014906 16.427562,-7.481834 24.976546,-10.376888c3.205378,-1.082208 5.99077,-3.1422 7.963688,-5.890602c1.973245,-2.748075 3.03483,-6.046092 3.035158,-9.429219l0,-31.687152c0,-8.531635 3.384437,-16.714645 9.411215,-22.753536c6.026451,-6.038563 14.202587,-9.440022 22.734222,-9.457371l43.046079,0c8.531307,0.017349 16.707444,3.418808 22.732585,9.457371c6.026451,6.03889 9.411215,14.221901 9.411215,22.753536l0,31.687152c0.003273,3.383127 1.063876,6.681144 3.037777,9.429219c1.970627,2.748402 4.756346,4.808394 7.96107,5.890602c8.550293,2.894726 16.894359,6.361654 24.976546,10.376888c3.034503,1.506449 6.461822,2.023329 9.804031,1.476988c3.342209,-0.546341 6.429087,-2.127753 8.821991,-4.521311l22.357773,-22.423243c2.985401,-2.989984 6.527291,-5.362265 10.429263,-6.980994c3.901972,-1.618729 8.082188,-2.451826 12.304959,-2.451826c4.226045,0 8.406261,0.833097 12.308233,2.451826c3.901972,1.618729 7.443862,3.99101 10.42599,6.980994l30.443235,30.475969c6.029725,6.044128 9.411215,14.231394 9.411215,22.766957c0,8.535563 -3.38149,16.722829 -9.411215,22.766957l-22.357773,22.423243c-2.366716,2.4168 -3.931433,5.509243 -4.468281,8.850798c-0.540122,3.341554 -0.029461,6.768219 1.456692,9.807959c4.006723,8.106411 7.463503,16.472409 10.344153,25.042016c1.073697,3.214216 3.129434,6.009429 5.879145,7.989549c2.749712,1.98012 6.052639,3.044323 9.440676,3.042032l31.621683,0c8.533926,0.017349 16.707771,3.418481 22.734222,9.457371c6.026451,6.03889 9.411215,14.221901 9.411215,22.753536l0,43.111549c0.006547,4.225717 -0.82164,8.410844 -2.435459,12.316416c-1.613819,3.9059 -3.980535,7.455646 -6.965936,10.447594c-2.982128,2.988675 -6.527291,5.365211 -10.432536,6.985577c-3.901972,1.620366 -8.085461,2.458373 -12.311506,2.461647l-31.621683,0c-3.388037,-0.003273 -6.690965,1.060603 -9.440676,3.04105c-2.749712,1.980447 -4.805448,4.775987 -5.879145,7.990531c-2.883924,8.569934 -6.33743,16.93364 -10.344153,25.042016c-1.486154,3.04105 -1.996814,6.465096 -1.456692,9.807304c0.536848,3.342209 2.101565,6.435634 4.468281,8.851452l22.357773,22.423243c6.029725,6.042818 9.411215,14.229757 9.411215,22.766957c0,8.533926 -3.38149,16.724138 -9.411215,22.766957l-30.4105,30.475969c-2.982128,2.988675 -6.524018,5.361937 -10.42599,6.97903c-3.901972,1.620366 -8.082188,2.451826 -12.308233,2.451826c-4.222771,0 -8.402987,-0.83146 -12.304959,-2.451826c-3.901972,-1.617092 -7.443862,-3.990355 -10.429263,-6.97903l-22.357773,-22.423243c-2.392904,-2.392904 -5.479782,-3.973988 -8.821991,-4.520657c-3.342209,-0.546669 -6.769528,-0.029461 -9.804031,1.476333c-8.082188,4.013269 -16.426253,7.47987 -24.976546,10.376888c-3.204723,1.080244 -5.990443,3.142527 -7.96107,5.888966c-1.9739,2.749712 -3.034503,6.046092 -3.037777,9.430856l0,31.687152c-0.016367,8.524106 -3.414225,16.697951 -9.44395,22.721128c-6.032343,6.026451 -14.206843,9.414489 -22.732585,9.424309zm-118.401269,-107.304219c4.967812,-0.029461 9.875065,1.090064 14.337782,3.273466c7.41571,3.695743 15.071038,6.887373 22.914263,9.558521c6.378676,2.157214 11.919672,6.262141 15.842594,11.735376c3.922922,5.473235 6.029725,12.039808 6.02416,18.773328l0,31.687152c0.042555,4.27842 1.758833,8.370253 4.781225,11.398209c3.022719,3.027956 7.11095,4.753073 11.389698,4.805448l43.046079,0c4.27842,-0.052375 8.366979,-1.777492 11.389371,-4.805448c3.022719,-3.027956 4.738997,-7.119789 4.781552,-11.398209l0,-31.687152c-0.005892,-6.73352 2.101238,-13.300093 6.024814,-18.773328c3.921612,-5.473235 9.463591,-9.578162 15.840302,-11.735376c7.843225,-2.671148 15.499862,-5.862778 22.914263,-9.558521c6.032998,-3.005042 12.854901,-4.039457 19.506585,-2.952666c6.651683,1.086791 12.789432,4.239139 17.549052,9.008579l22.357773,22.390508c1.502521,1.512341 3.28656,2.713703 5.253913,3.53207c1.96408,0.818367 4.075465,1.240644 6.203218,1.240644c2.131026,0 4.242412,-0.422277 6.206492,-1.240644c1.967353,-0.818367 3.751392,-2.019729 5.25064,-3.53207l30.4105,-30.475969c3.001768,-3.060691 4.681057,-7.172164 4.681057,-11.457131c0,-4.284967 -1.679288,-8.396441 -4.681057,-11.457131l-22.357773,-22.423243c-4.75962,-4.772714 -7.902147,-10.917009 -8.988938,-17.571966c-1.086791,-6.651683 -0.058922,-13.47686 2.933026,-19.516405c3.682649,-7.417674 6.864458,-15.074311 9.525786,-22.914263c2.140847,-6.379985 6.232679,-11.925237 11.692821,-15.85667c5.463415,-3.928487 12.023441,-6.042818 18.750414,-6.043146l31.621683,0c2.127753,0 4.232592,-0.419331 6.196671,-1.234097c1.96408,-0.814766 3.748119,-2.008599 5.25064,-3.513739c1.502521,-1.50514 2.694063,-3.291798 3.502609,-5.257514c0.81182,-1.965716 1.22755,-4.071864 1.221003,-6.198308l0,-43.078814c-0.042555,-4.278748 -1.757851,-8.37058 -4.779261,-11.399191c-3.024683,-3.028611 -7.109968,-4.7534 -11.391662,-4.804466l-31.621683,0c-6.726973,-0.000327 -13.286999,-2.114659 -18.750414,-6.044128c-5.460141,-3.929469 -9.551974,-9.475702 -11.692821,-15.85536c-2.658054,-7.841915 -5.839864,-15.497243 -9.525786,-22.914263c-2.991948,-6.039218 -4.019816,-12.865049 -2.933026,-19.517714c1.086791,-6.652338 4.229318,-12.797288 8.988938,-17.570657l22.357773,-22.423243c3.001768,-3.059381 4.681057,-7.172819 4.681057,-11.457131c0,-4.284312 -1.679288,-8.397423 -4.681057,-11.457131l-30.443235,-30.475969c-1.499247,-1.512341 -3.283287,-2.712721 -5.25064,-3.531743c-1.96408,-0.819021 -4.075465,-1.240971 -6.206492,-1.240971c-2.127753,0 -4.239139,0.42195 -6.203218,1.240971c-1.967353,0.819021 -3.751392,2.019401 -5.253913,3.531743l-22.357773,22.423243c-4.75962,4.769767 -10.897369,7.921133 -17.549052,9.007924c-6.651683,1.086791 -13.473586,0.054012 -19.506585,-2.952012c-7.414401,-3.695416 -15.067764,-6.888682 -22.914263,-9.558521c-6.376712,-2.157869 -11.91869,-6.262468 -15.841285,-11.735703c-3.922594,-5.473235 -6.029725,-12.039154 -6.023832,-18.773001l0,-31.687152c-0.042555,-4.278748 -1.758833,-8.37058 -4.781552,-11.399191c-3.022391,-3.028611 -7.11095,-4.7534 -11.389371,-4.804466l-42.947875,0c-4.278748,0.051066 -8.366979,1.775855 -11.389698,4.804466c-3.022391,3.028611 -4.738997,7.120443 -4.781225,11.399191l0,31.687152c0.005565,6.733847 -2.101238,13.299765 -6.02416,18.773001c-3.922922,5.473235 -9.463918,9.577834 -15.842594,11.735703c-7.843225,2.670821 -15.498225,5.864087 -22.914263,9.558521c-6.031034,3.006024 -12.854901,4.038802 -19.505275,2.952012c-6.650374,-1.086791 -12.790414,-4.238157 -17.550361,-9.007924l-22.357773,-22.423243c-1.50023,-1.512341 -3.285251,-2.712721 -5.251622,-3.531743c-1.966371,-0.819021 -4.075465,-1.240971 -6.20551,-1.240971c-2.130372,0 -4.239466,0.42195 -6.205837,1.240971c-1.966371,0.819021 -3.751065,2.019401 -5.251294,3.531743l-30.443235,30.475969c-2.99915,3.059709 -4.678765,7.172819 -4.678765,11.457131c0,4.284312 1.679615,8.39775 4.678765,11.457131l22.357773,22.423243c4.759292,4.773368 7.903457,10.918319 8.989593,17.570657c1.086136,6.652665 0.060232,13.478497 -2.93368,19.517714c-3.682649,7.417347 -6.864786,15.072347 -9.525786,22.914263c-2.140192,6.379658 -6.230388,11.925892 -11.692821,15.85536c-5.46276,3.929469 -12.021477,6.0438 -18.750414,6.044128l-31.621683,0c-4.278748,0.051066 -8.366979,1.775855 -11.389698,4.804466c-3.022391,3.028611 -4.73867,7.120443 -4.781225,11.399191l0,43.111549c0.042555,4.278748 1.758833,8.37058 4.781225,11.399191c3.022719,3.028611 7.11095,4.7534 11.389698,4.804466l31.621683,0c6.728937,0.000327 13.287654,2.114659 18.750414,6.043146c5.462433,3.931433 9.552629,9.476684 11.692821,15.85667c2.66231,7.839951 5.844446,15.496589 9.525786,22.914263c2.993912,6.039545 4.019816,12.864722 2.93368,19.516405c-1.086136,6.654957 -4.2303,12.799252 -8.989593,17.571966l-22.357773,22.390508c-2.99915,3.060691 -4.678765,7.172164 -4.678765,11.457131c0,4.284967 1.679615,8.396441 4.678765,11.457131l30.443235,30.475969c1.50023,1.512341 3.284923,2.713703 5.251294,3.53207c1.966371,0.818367 4.075465,1.240644 6.205837,1.240644c2.130044,0 4.239139,-0.422277 6.20551,-1.240644c1.966371,-0.818367 3.751392,-2.019729 5.251622,-3.53207l22.357773,-22.423243c6.029725,-5.960982 14.174108,-9.290097 22.652385,-9.263909l0,-0.032735z"/>
   <path stroke-width="40" id="svg_29" fill="white" d="m265.397487,196.649865c-37.96566,0 -68.74279,30.77746 -68.74279,68.74279c0,37.96566 30.77713,68.74344 68.74279,68.74344c37.96566,0 68.74279,-30.77778 68.74279,-68.74344c0,-37.96533 -30.77713,-68.74279 -68.74279,-68.74279zm-85.2626,66.07836c0.00001,-44.62476 43.30194,-79.93374 86.59482,-81.26595c43.29288,-1.33221 83.93038,35.30896 83.93038,81.26595c0,45.95698 -29.9798,87.92769 -83.9304,87.92769c-53.9506,0 -86.59481,-43.30293 -86.5948,-87.92769z" clip-rule="evenodd" fill-rule="evenodd"/>
  </g>
 </g>
</svg>
