<svg width="17" height="18" viewBox="0 0 17 18" fill="none" xmlns="http://www.w3.org/2000/svg">
<path fill-rule="evenodd" clip-rule="evenodd" d="M13.907 17.3828C13.3053 17.3828 12.7172 17.2044 12.217 16.8702C11.7167 16.5359 11.3268 16.0608 11.0966 15.5049C10.8663 14.9491 10.8061 14.3374 10.9234 13.7474C11.0408 13.1573 11.3306 12.6152 11.756 12.1898C12.1814 11.7644 12.7235 11.4747 13.3135 11.3573C13.9036 11.2399 14.5153 11.3001 15.0711 11.5304C15.627 11.7606 16.1021 12.1505 16.4363 12.6507C16.7706 13.151 16.949 13.7392 16.949 14.3408C16.949 15.1476 16.6285 15.9213 16.058 16.4918C15.4875 17.0623 14.7138 17.3828 13.907 17.3828Z" fill="white"/>
<path fill-rule="evenodd" clip-rule="evenodd" d="M13.907 6.08397C13.3053 6.08397 12.7172 5.90559 12.217 5.57133C11.7167 5.23707 11.3268 4.76195 11.0966 4.2061C10.8663 3.65025 10.8061 3.03862 10.9234 2.44853C11.0408 1.85844 11.3306 1.31641 11.756 0.890975C12.1814 0.465544 12.7235 0.175832 13.3135 0.0584555C13.9036 -0.0589207 14.5153 0.00130947 15.0711 0.231551C15.627 0.461793 16.1021 0.851658 16.4363 1.35191C16.7706 1.85217 16.949 2.44033 16.949 3.04198C16.949 3.84876 16.6285 4.62249 16.058 5.19298C15.4875 5.76346 14.7138 6.08397 13.907 6.08397Z" fill="white"/>
<path fill-rule="evenodd" clip-rule="evenodd" d="M3.042 11.7339C2.44035 11.7339 1.85222 11.5555 1.35197 11.2212C0.851711 10.887 0.461816 10.4119 0.231574 9.856C0.00133209 9.30015 -0.0589286 8.68852 0.0584476 8.09843C0.175824 7.50834 0.465566 6.96631 0.890998 6.54088C1.31643 6.11545 1.85846 5.82573 2.44855 5.70836C3.03864 5.59098 3.65027 5.65121 4.20612 5.88145C4.76198 6.1117 5.23707 6.50156 5.57133 7.00181C5.90559 7.50207 6.08402 8.09023 6.08402 8.69188C6.08402 9.49867 5.76352 10.2724 5.19303 10.8429C4.62254 11.4134 3.84879 11.7339 3.042 11.7339Z" fill="white"/>
<path opacity="0.3" fill-rule="evenodd" clip-rule="evenodd" d="M13.5561 2.32373L14.2057 3.56391L4.41486 8.69218L14.2151 14.0177L13.5467 15.2478L1.44092 8.66946L13.5561 2.32373Z" fill="white"/>
</svg>
