<svg width="72" height="72" viewBox="0 0 72 72" fill="none" xmlns="http://www.w3.org/2000/svg">
<path opacity="0.7" d="M72 36C72 16.1177 55.8823 0 36 0C16.1177 0 0 16.1177 0 36C0 55.8823 16.1177 72 36 72C55.8823 72 72 55.8823 72 36Z" fill="#011A22"/>
<path fill-rule="evenodd" clip-rule="evenodd" d="M47.6655 29.5476C46.4835 27.4412 44.7799 25.6741 42.7183 24.4157L43.4477 23.2207C45.7142 24.6041 47.587 26.5469 48.8864 28.8625C50.1858 31.1782 50.8682 33.7889 50.868 36.4442V36.4443C50.8674 39.1728 50.1466 41.8527 48.7784 44.2134C47.4103 46.574 45.4432 48.5316 43.0761 49.8885L42.3799 48.6739C44.5332 47.4396 46.3226 45.6588 47.5672 43.5113C48.8117 41.364 49.4674 38.9261 49.468 36.4441M47.6655 29.5476C48.8474 31.654 49.4681 34.0287 49.468 36.444Z" fill="white"/>
<path fill-rule="evenodd" clip-rule="evenodd" d="M43.0758 32.4427C42.3966 31.2123 41.4165 30.1742 40.2271 29.4255L40.9729 28.2407C42.3627 29.1155 43.5079 30.3285 44.3015 31.7661C45.0951 33.2037 45.5113 34.8191 45.511 36.4612V36.4613C45.5105 38.1646 45.0622 39.8377 44.211 41.313C43.3599 42.7884 42.1358 44.014 40.6616 44.867L39.9604 43.6552C41.2222 42.9251 42.2699 41.8761 42.9984 40.6134C43.7268 39.3508 44.1105 37.9188 44.111 36.461M43.0758 32.4427C43.7551 33.673 44.1112 35.0555 44.111 36.4609Z" fill="white"/>
<path fill-rule="evenodd" clip-rule="evenodd" d="M38.333 33.608C38.9434 33.7906 39.4786 34.1651 39.8592 34.676C40.2399 35.1869 40.4456 35.8069 40.446 36.444C40.4456 37.0811 40.2399 37.7011 39.8592 38.212C39.4786 38.7229 38.9434 39.0974 38.333 39.28V50.888L28.452 42.15H22V30.738H28.452L38.333 22V33.608Z" fill="white"/>
</svg>
