<svg width="18" height="18" viewBox="0 0 18 18" fill="none" xmlns="http://www.w3.org/2000/svg">
<path fill-rule="evenodd" clip-rule="evenodd" d="M0 5.93198V11.932H3.3775L9.75 17.5922V10.7866C10.483 10.4899 11 9.77133 11 8.93198C11 8.09262 10.483 7.37405 9.75 7.07736V0.271729L3.3775 5.93198H0Z" fill="white"/>
<path fill-rule="evenodd" clip-rule="evenodd" d="M10.9193 4.50775C12.3538 5.45618 13.3 7.08359 13.3 8.93201C13.3 10.7804 12.3538 12.4078 10.9193 13.3563L11.6904 14.525C13.5038 13.326 14.7 11.2687 14.7 8.93201C14.7 6.59534 13.5038 4.53802 11.6904 3.33905L10.9193 4.50775Z" fill="white"/>
<path fill-rule="evenodd" clip-rule="evenodd" d="M12.1225 1.16867C14.6396 2.83289 16.3 5.68854 16.3 8.93201C16.3 12.1755 14.6396 15.0311 12.1225 16.6953L12.8936 17.864C15.7897 15.9492 17.7 12.6637 17.7 8.93201C17.7 5.20029 15.7897 1.91476 12.8936 0L12.1225 1.16867Z" fill="white"/>
</svg>
