<svg xmlns="http://www.w3.org/2000/svg" width="11.474" height="11.474" viewBox="0 0 11.474 11.474">
  <g id="_12-Download" data-name="12-Download" transform="translate(0.1 0.1)">
    <path id="Path_9393" data-name="Path 9393" d="M10.569,19v3.875H.7V19H0v4.228a.352.352,0,0,0,.352.352H10.922a.352.352,0,0,0,.352-.352V19Z" transform="translate(0 -12.306)" fill="#fff" stroke="#fff" stroke-width="0.2"/>
    <path id="Path_9394" data-name="Path 9394" d="M10.359,8.808a.352.352,0,0,0,.25-.1l2.819-2.819-.5-.5-2.22,2.216V0h-.7V7.607L7.79,5.387l-.5.5,2.819,2.819A.352.352,0,0,0,10.359,8.808Z" transform="translate(-4.722)" fill="#fff" stroke="#fff" stroke-width="0.2"/>
  </g>
</svg>
