<svg xmlns="http://www.w3.org/2000/svg" width="12.867" height="7.974" viewBox="0 0 12.867 7.974">
  <path id="Rounded_Rectangle_1022_copy_41" data-name="Rounded Rectangle 1022 copy 41" d="M1936.874,1709.722l2.42,2.41a.509.509,0,0,1,0,.721.514.514,0,0,1-.726,0l-2.417-2.41a.511.511,0,1,1,.724-.721Zm0,.567,2.4-2.392a.5.5,0,0,0,0-.717.511.511,0,0,0-.719,0l-2.4,2.392a.5.5,0,0,0,0,.717.51.51,0,0,0,.719,0Zm11.117-.567-2.42,2.41a.509.509,0,0,0,0,.721.514.514,0,0,0,.726,0l2.417-2.41a.511.511,0,1,0-.723-.721Zm0,.567-2.4-2.392a.5.5,0,0,1,0-.717.511.511,0,0,1,.719,0l2.4,2.392a.5.5,0,0,1,0,.717A.51.51,0,0,1,1947.991,1710.289Zm-7.027,3.077,2-6.824a.494.494,0,0,1,.634-.37.6.6,0,0,1,.31.733l-2,6.824a.494.494,0,0,1-.634.37A.6.6,0,0,1,1940.964,1713.366Z" transform="translate(-1936.001 -1706.148)" fill="#fff" fill-rule="evenodd"/>
</svg>
