<svg xmlns="http://www.w3.org/2000/svg" width="11.184" height="11.19" viewBox="0 0 11.184 11.19">
  <path id="Path_9788" data-name="Path 9788" d="M459.884,65.12h-9.955a.619.619,0,0,0-.619.619v9.952a.619.619,0,0,0,.619.619h4.97V71.881h-1.337V70.248H454.9v-1.2a2.126,2.126,0,0,1,2.294-2.234c.619,0,1.283.048,1.435.069v1.5H457.6c-.7,0-.834.335-.834.822v1.041h1.672l-.218,1.633h-1.453v4.429h3.113a.619.619,0,0,0,.616-.619V65.739a.619.619,0,0,0-.61-.619Z" transform="translate(-449.31 -65.12)" fill="#fff"/>
</svg>
