<svg xmlns="http://www.w3.org/2000/svg" width="11.713" height="11.713" viewBox="0 0 11.713 11.713">
  <path id="linkedin_3_" data-name="linkedin (3)" d="M10.654,0H1.06A1.06,1.06,0,0,0,0,1.06v9.594a1.06,1.06,0,0,0,1.06,1.06h9.594a1.06,1.06,0,0,0,1.06-1.06V1.06A1.06,1.06,0,0,0,10.654,0ZM3.625,10.114a.308.308,0,0,1-.308.308H2a.308.308,0,0,1-.308-.308v-5.5A.308.308,0,0,1,2,4.3H3.316a.308.308,0,0,1,.308.308ZM2.66,3.785A1.247,1.247,0,1,1,3.907,2.538,1.247,1.247,0,0,1,2.66,3.785Zm7.824,6.354a.284.284,0,0,1-.284.284H8.792a.284.284,0,0,1-.284-.284V7.558c0-.385.113-1.687-1.006-1.687-.868,0-1.044.891-1.079,1.291v2.977a.284.284,0,0,1-.284.284H4.777a.284.284,0,0,1-.284-.284V4.587A.284.284,0,0,1,4.777,4.3H6.139a.284.284,0,0,1,.284.284v.48a1.934,1.934,0,0,1,1.819-.856c2.255,0,2.242,2.107,2.242,3.265v2.663Z" fill="#fff"/>
</svg>
