<svg xmlns="http://www.w3.org/2000/svg" width="11.174" height="11.174" viewBox="0 0 11.174 11.174">
  <path id="Subtraction_10" data-name="Subtraction 10" d="M852.588-3526.847a5.593,5.593,0,0,1-5.587-5.587,5.593,5.593,0,0,1,5.587-5.586,5.593,5.593,0,0,1,5.586,5.586A5.593,5.593,0,0,1,852.588-3526.847Zm-.381-7.2a.7.7,0,0,0-.593.4,1.43,1.43,0,0,0-.038,1.333c-.061.3-.142.6-.221.9l0,.006a6.594,6.594,0,0,0-.309,2.775,3.6,3.6,0,0,0,1.064-2.349c.083.05.155.1.225.149a1.3,1.3,0,0,0,.706.294c.052,0,.1.006.157.006a1.831,1.831,0,0,0,1.409-.658,3.158,3.158,0,0,0,.649-2.45,2.4,2.4,0,0,0-2.6-1.929,3.759,3.759,0,0,0-.414.023,2.583,2.583,0,0,0-2.349,2.394c-.034.921.285,1.442.975,1.595a.641.641,0,0,0-.02-.784,1,1,0,0,1-.158-.368,1.806,1.806,0,0,1,.423-1.477,2.165,2.165,0,0,1,1.6-.752,1.664,1.664,0,0,1,1.211.5,2.371,2.371,0,0,1,.181,2.328,1.221,1.221,0,0,1-1.051.883.967.967,0,0,1-.193-.02.548.548,0,0,1-.394-.242c-.16-.271-.017-.719.121-1.153.181-.569.368-1.158-.126-1.353A.692.692,0,0,0,852.207-3534.049Z" transform="translate(-847.001 3538.021)" fill="#fff"/>
</svg>
