<svg xmlns="http://www.w3.org/2000/svg" width="12.388" height="10.063" viewBox="0 0 12.388 10.063">
  <path id="Path_9789" data-name="Path 9789" d="M12.389,58.632a5.075,5.075,0,0,1-1.459.4,2.552,2.552,0,0,0,1.117-1.405,5.123,5.123,0,0,1-1.615.617A2.543,2.543,0,0,0,6.1,60.561,7.215,7.215,0,0,1,.864,57.905,2.544,2.544,0,0,0,1.651,61.3,2.541,2.541,0,0,1,.5,60.979v.032A2.544,2.544,0,0,0,2.538,63.5a2.574,2.574,0,0,1-.67.089,2.439,2.439,0,0,1-.478-.047,2.543,2.543,0,0,0,2.373,1.765A5.1,5.1,0,0,1,.607,66.4,5.4,5.4,0,0,1,0,66.36,7.183,7.183,0,0,0,3.9,67.5a7.18,7.18,0,0,0,7.23-7.23l-.009-.329A5.075,5.075,0,0,0,12.389,58.632Z" transform="translate(-0.001 -57.441)" fill="#fff"/>
</svg>
