<?xml version="1.0" encoding="UTF-8" standalone="no"?><!DOCTYPE svg PUBLIC "-//W3C//DTD SVG 1.1//EN" "http://www.w3.org/Graphics/SVG/1.1/DTD/svg11.dtd"><svg width="100%" height="100%" viewBox="0 0 288 288" version="1.1" xmlns="http://www.w3.org/2000/svg" xmlns:xlink="http://www.w3.org/1999/xlink" xml:space="preserve" xmlns:serif="http://www.serif.com/" style="fill-rule:evenodd;clip-rule:evenodd;stroke-linejoin:round;stroke-miterlimit:2;"><g id="Layer-2" serif:id="Layer 2"><path d="M35.823,0l216,0c19.882,0 36,16.118 36,36l0,216c0,19.882 -16.118,36 -36,36l-216,0c-19.882,0 -36,-16.118 -36,-36l0,-216c0,-19.882 16.118,-36 36,-36" style="fill:#356ae6;fill-rule:nonzero;"/></g><g id="Layer-1" serif:id="Layer 1"><path d="M146.556,150.7c2.601,0 5.214,-1.021 8.005,-3.066c3.265,-2.284 6.202,-4.243 6.206,-4.247l1.001,-0.667l-0.987,-0.685c-0.439,-0.307 -43.943,-30.495 -48.447,-33.389c-2.077,-1.509 -4.458,-1.833 -6.365,-0.861c-1.776,0.906 -2.796,2.772 -2.796,5.125l0,10.251l0.352,0.244c0.302,0.209 30.2,21.005 36.031,24.895c2.402,1.598 4.695,2.4 7,2.4" style="fill:#fff;fill-rule:nonzero;"/><path d="M204.887,132.637c-2.604,-1.949 -95.925,-66.995 -99.897,-69.762l-1.286,-0.897l0,15.976c0,5.082 2.658,7.006 6.024,9.443c0,0 71.588,49.89 80.462,56.049c-8.936,6.193 -76.301,52.905 -80.553,55.636c-5.099,3.396 -5.604,5.599 -5.604,10.179l0,17.157c0,0 98.673,-70.611 100.837,-72.157l0.017,-0.01c4.493,-3.374 5.519,-7.41 5.564,-10.275l0.002,-1.842c0,-3.715 -1.879,-6.915 -5.566,-9.497" style="fill:#fff;fill-rule:nonzero;"/></g></svg>