<svg xmlns="http://www.w3.org/2000/svg" width="318.478" height="318.48" viewBox="0 0 318.478 318.48">
  <g id="aweber-seeklogo.com" transform="translate(0 -0.52)">
    <path id="Path_9548" data-name="Path 9548" d="M79.549.519H75.814A75.821,75.821,0,0,0,0,76.334V243.171A75.823,75.823,0,0,0,75.814,319h8.447C64.018,270.036,53.548,217.157,53.548,153.221c0-58.359,8.827-107.446,26-152.7Z" fill="#0079c1"/>
    <path id="Path_9549" data-name="Path 9549" d="M242.639.519H136.614c-19.66,44.376-30.462,93.032-30.462,152.7,0,65.579,13.007,118.17,35.885,165.779h100.6a75.828,75.828,0,0,0,75.839-75.829V76.334A75.825,75.825,0,0,0,242.639.519ZM191.333,297.654a13.582,13.582,0,0,1-8.49,2.9c-3.515,0-7.027-1.758-9.954-5.551C143.026,254.31,127.2,215.65,127.2,160.3c0-55.056,15.824-93.422,45.994-133.823,2.926-3.822,6.719-5.578,10.245-5.578a12.833,12.833,0,0,1,7.892,2.635c3.822,2.356,6.456,5.869,6.456,9.953a11.694,11.694,0,0,1-2.634,6.748c-26.364,35.133-41.881,69.694-41.881,120.065,0,50.942,15.809,86.075,41.572,120.648q2.634,3.955,2.634,7.013c0,4.113-2.634,7.348-6.147,9.689Zm50.888-56.311a9.177,9.177,0,0,1,1.838,4.9c0,2.857-1.838,5.1-4.293,6.733a9.421,9.421,0,0,1-5.913,2.034c-2.439,0-4.907-1.21-6.942-3.873-20.8-28.344-31.828-55.28-31.828-93.828,0-38.352,11.028-65.078,32.036-93.211a9.1,9.1,0,0,1,7.141-3.89,8.986,8.986,0,0,1,5.506,1.826c2.649,1.645,4.486,4.085,4.486,6.942a8.1,8.1,0,0,1-1.837,4.7c-18.363,24.481-29.166,48.558-29.166,83.634C213.249,192.788,224.276,217.268,242.221,241.343Z" fill="#0079c1"/>
  </g>
</svg>
