<svg id="convertkit-long" xmlns="http://www.w3.org/2000/svg" width="45.709" height="42.428" viewBox="0 0 45.709 42.428">
  <path id="Path_2277" data-name="Path 2277" d="M22.055,33.5c7.937,0,14.072-6,14.072-13.4,0-6.932-5.764-11.165-9.581-11.165A10.062,10.062,0,0,0,16.363,18.2a2.034,2.034,0,0,1-1.956,1.879c-1.714-.012-4.207-.027-5.784-.021a1.187,1.187,0,0,1-1.207-1.228A20.5,20.5,0,0,1,12.322,6.085,18.574,18.574,0,0,1,26.547,0C36.4,0,45.709,8.959,45.709,20.1c0,12.333-10.215,22.33-23.444,22.33-9.434,0-18.936-6.167-22.254-14.79a.185.185,0,0,1-.008-.1,3.923,3.923,0,0,1,.218-.718,2.542,2.542,0,0,0,.23-1.036l-.057-1.2a1.464,1.464,0,0,1,.848-1.4l.48-.223a1.853,1.853,0,0,0,1.043-1.346A1.862,1.862,0,0,1,4.6,20.1,3.308,3.308,0,0,1,7.7,22.367C9.911,28.781,13.432,33.5,22.055,33.5Z" transform="translate(0)" fill="#fb6970"/>
</svg>
