<svg xmlns="http://www.w3.org/2000/svg" width="12.041" height="12.047" viewBox="0 0 12.041 12.047">
  <path id="Path_4788" data-name="Path 4788" d="M460.694,65.12H449.976a.666.666,0,0,0-.666.666V76.5a.666.666,0,0,0,.666.666h5.351V72.4h-1.439V70.641h1.439V69.353a2.289,2.289,0,0,1,2.469-2.4c.666,0,1.381.052,1.545.074v1.61h-1.107c-.753,0-.9.361-.9.885v1.12h1.8L458.9,72.4h-1.565v4.768h3.351a.666.666,0,0,0,.663-.666V65.786a.666.666,0,0,0-.657-.666Z" transform="translate(-449.31 -65.12)" fill="#3b5998"/>
</svg>
