<svg xmlns="http://www.w3.org/2000/svg" width="106.493" height="67.168" viewBox="0 0 106.493 67.168">
  <g id="getresponse-seeklogo.com" transform="translate(0 -0.825)">
    <path id="Path_9551" data-name="Path 9551" d="M.017,5.424A4.6,4.6,0,0,1,5.2.862Q53.21.87,101.219.883A5.777,5.777,0,0,1,105.5,2.458c-8.534,12.62-18.978,24.525-32.632,31.707-8.128,4.356-17.7,6.25-26.793,4.3a36.246,36.246,0,0,1-27.437-23.21c-.655-1.564-.785-3.344-1.613-4.822-2.035-.135-4.438-.038-5.79,1.721-1.521,1.71-1.109,4.124-.714,6.169A42.639,42.639,0,0,0,30.084,46.817,43.067,43.067,0,0,0,61,52.8c9.925-1.851,18.87-7.246,26.176-14.076,7.766-7.16,13.859-15.894,19.249-24.926.1,16.467.032,32.93.049,49.4a4.5,4.5,0,0,1-4.654,4.784q-48.623.057-97.246-.065a4.473,4.473,0,0,1-4.562-4.7q.008-28.9.005-57.8Z" transform="translate(0 0)" fill="#31acdb"/>
  </g>
</svg>
