<svg xmlns="http://www.w3.org/2000/svg" xmlns:xlink="http://www.w3.org/1999/xlink" width="79.43" height="83.238" viewBox="0 0 79.43 83.238">
  <defs>
    <linearGradient id="linear-gradient" x1="0.5" x2="0.5" y2="1" gradientUnits="objectBoundingBox">
      <stop offset="0" stop-color="#6bc9db"/>
      <stop offset="1" stop-color="#365ea1"/>
    </linearGradient>
  </defs>
  <g id="XMLID_16_" transform="translate(328.053 -239.4)">
    <path id="XMLID_20_" d="M-306.9,312.7c-7.8-.6-14-4-18.1-10.8-4-6.8-3.9-13.8-.6-20.8-7.3-14.2,2.5-30.8,18.7-31.8,4.5-6.4,10.7-9.9,18.6-9.9s14,3.5,18.5,9.9A21.766,21.766,0,0,1-251.1,281c3.3,7,3.5,14.1-.6,20.9-4,6.8-10.3,10.1-18,10.8A22.375,22.375,0,0,1-306.9,312.7Z" fill="url(#linear-gradient)"/>
    <path id="XMLID_26_" d="M-302.2,304.8c-7.1,1.2-12.6-.8-16.3-6.9-2.6-4.2-2.9-11.2,2.3-16.8-4.6-5.5-5.7-11.5-1.8-17.8,3.1-5,7.7-6.7,15.7-6.1,2.4-6.5,6.9-10.3,14-10.4,7,0,11.6,3.8,14,10.3,7.5-1.2,13.5,1,16.9,8.2,2.7,5.7,1.3,11-2.9,15.7,4.7,5.6,5.7,11.6,1.7,17.9-3.1,4.9-8,6.6-15.7,5.9-2.3,6.5-7,10.4-14,10.4C-295.2,315.2-299.9,311.3-302.2,304.8Zm13.9,3.1a6.873,6.873,0,0,0,6.6-4.7,6.835,6.835,0,0,0-2.4-7.6,8.063,8.063,0,0,1-1.4-1.2,4.4,4.4,0,0,1,2.3-7.4c2.9-.7,5.3,1.2,5.7,4.5a6.883,6.883,0,0,0,8.4,6.1,6.867,6.867,0,0,0,5.2-8.6,6.943,6.943,0,0,0-9.3-4.4c-.5.2-1.1.4-1.6.6a4.665,4.665,0,0,1-5-1.9,4.362,4.362,0,0,1,0-5,4.611,4.611,0,0,1,5-1.8c.6.2,1.2.4,1.9.7a6.952,6.952,0,0,0,8.3-2.9,6.822,6.822,0,0,0-1.2-8.4,6.833,6.833,0,0,0-8.9-.4,7.158,7.158,0,0,0-2.8,5.2,4.7,4.7,0,0,1-4.2,4.3,4.584,4.584,0,0,1-4.6-2.7,4.7,4.7,0,0,1,1.7-5.7,10.63,10.63,0,0,0,1.1-.9,6.651,6.651,0,0,0,.1-9.7,6.957,6.957,0,0,0-10.1.4,6.734,6.734,0,0,0,1,9.8,10.7,10.7,0,0,1,1.6,1.4,4.524,4.524,0,0,1,.4,5.3,4.4,4.4,0,0,1-5,1.9c-2.5-.7-3.4-2.6-3.7-4.9a6.732,6.732,0,0,0-8.4-5.6,6.7,6.7,0,0,0-4.9,8.6,6.988,6.988,0,0,0,9.3,4.2,10.564,10.564,0,0,1,1.9-.6,4.681,4.681,0,0,1,5.5,3.8,4.416,4.416,0,0,1-3.9,5,9.709,9.709,0,0,1-3.7-.7,7.023,7.023,0,0,0-9.1,4.4,6.791,6.791,0,0,0,5,8.6,6.907,6.907,0,0,0,8.4-5.5,9.007,9.007,0,0,1,.3-1.6,4.658,4.658,0,0,1,4.9-3.7,4.591,4.591,0,0,1,4.2,4.1c.2,2-.9,3.4-2.4,4.6a6.456,6.456,0,0,0-2.5,7.6A6.344,6.344,0,0,0-288.3,307.9Z" fill="#fff"/>
  </g>
</svg>
