<svg xmlns="http://www.w3.org/2000/svg" width="60" height="17.398" viewBox="0 0 60 17.398">
  <g id="hubspot-seeklogo.com" transform="translate(-0.06 -0.002)">
    <path id="Path_9370" data-name="Path 9370" d="M.06,27.679H2.152v4.648H6.565V27.679H8.659v11.41H6.565V34.343H2.152v4.746H.06V27.679Z" transform="translate(0 -24.433)" fill="#45535e"/>
    <path id="Path_9371" data-name="Path 9371" d="M88.938,56.322a1.733,1.733,0,0,1-3.466,0V51.41H83.488v4.912a3.717,3.717,0,0,0,7.433,0V51.41H88.938v4.912" transform="translate(-73.651 -45.383)" fill="#45535e"/>
    <path id="Path_9372" data-name="Path 9372" d="M161.6,30.518a3.049,3.049,0,0,0-2.335.937V27.679h-1.991v7a4.176,4.176,0,0,0,4.021,4.413,4.357,4.357,0,0,0,4.437-4.285,4.211,4.211,0,0,0-4.133-4.286Zm.049,6.73a2.445,2.445,0,0,1,0-4.888,2.461,2.461,0,0,1,0,4.888Z" transform="translate(-138.789 -24.433)" fill="#45535e"/>
    <path id="Path_9373" data-name="Path 9373" d="M240.038,31.069a1.228,1.228,0,0,1,1.4-1.318,2.982,2.982,0,0,1,1.873.984l1.3-1.524a4.111,4.111,0,0,0-3.047-1.476c-2.159,0-3.714,1.254-3.714,3.333,0,3.857,4.746,2.634,4.746,4.793a1.366,1.366,0,0,1-1.4,1.254,2.442,2.442,0,0,1-2.1-1.175l-1.445,1.492a4.268,4.268,0,0,0,3.429,1.7c2.047,0,3.7-1.27,3.7-3.254,0-4.285-4.746-2.952-4.746-4.809" transform="translate(-209.752 -24.484)" fill="#45535e"/>
    <path id="Path_9374" data-name="Path 9374" d="M312.894,50.947a4.176,4.176,0,0,0-4.021,4.412v7.015h1.99V58.581a3.051,3.051,0,0,0,2.335.937,4.211,4.211,0,0,0,4.133-4.285,4.357,4.357,0,0,0-4.437-4.285Zm.354,6.73a2.445,2.445,0,0,1,0-4.889,2.461,2.461,0,0,1,0,4.889Z" transform="translate(-272.622 -44.975)" fill="#45535e"/>
    <path id="Path_9375" data-name="Path 9375" d="M479.534,43.206c-1.174,0-1.507-.508-1.507-1.286V38.476h1.825V36.731h-1.825v-2.3l-2.015.9v7.016c0,1.794,1.238,2.7,2.935,2.7a4.075,4.075,0,0,0,.794-.063l.492-1.809c-.222.015-.476.031-.7.031" transform="translate(-420.174 -30.392)" fill="#45535e"/>
    <path id="Path_9376" data-name="Path 9376" d="M348.722,8.185a4.378,4.378,0,0,0-1.589-1.579,4.268,4.268,0,0,0-1.607-.557V3.964a1.54,1.54,0,0,0,.95-1.442,1.584,1.584,0,1,0-3.167,0,1.522,1.522,0,0,0,.929,1.442V6.051a4.59,4.59,0,0,0-1.4.438c-.907-.689-3.88-2.948-5.619-4.267a1.725,1.725,0,0,0,.073-.464,1.755,1.755,0,1,0-1.755,1.756,1.739,1.739,0,0,0,.9-.256l.367.278,5.044,3.634a4.228,4.228,0,0,0-.714.836,3.9,3.9,0,0,0-.649,2.1v.159a4.405,4.405,0,0,0,.276,1.519,3.989,3.989,0,0,0,.653,1.135L339.741,14.6a1.355,1.355,0,1,0,.892,1.272,1.359,1.359,0,0,0-.062-.407l1.73-1.73a4.445,4.445,0,0,0,.769.421,4.5,4.5,0,0,0,1.8.378h.12A4.308,4.308,0,0,0,348.65,12.5a3.974,3.974,0,0,0,.625-2.141V10.32a4.2,4.2,0,0,0-.553-2.134Zm-2.114,3.63a2.2,2.2,0,0,1-1.62.843h-.1a2.189,2.189,0,0,1-1.023-.272,2.364,2.364,0,0,1-.9-.816,1.9,1.9,0,0,1-.373-1.111v-.12a2.277,2.277,0,0,1,.263-1.107,2.4,2.4,0,0,1,.834-.913,2.042,2.042,0,0,1,1.156-.349h.039a2.343,2.343,0,0,1,1.087.25,2.3,2.3,0,0,1,.854.777,2.471,2.471,0,0,1,.383,1.091c.006.082.01.166.01.246a2.159,2.159,0,0,1-.613,1.48Z" transform="translate(-294.61)" fill="#f8761f"/>
  </g>
</svg>
