<svg xmlns="http://www.w3.org/2000/svg" width="67.676" height="31.301" viewBox="0 0 67.676 31.301">
  <path id="keap-logo_logotyp.us" data-name="keap-logo@logotyp.us" d="M154.878,148.049h-3.137a.726.726,0,0,1-.8-.8v-21.4a.726.726,0,0,1,.8-.8h3.04a.727.727,0,0,1,.8.8v.9a5.43,5.43,0,0,1,4.383-2.056c4.321,0,7.713,3.695,7.713,8.483,0,4.692-3.3,8.419-7.647,8.419a5.684,5.684,0,0,1-4.352-1.8v7.456a.726.726,0,0,1-.8.8Zm-33.053-13.208a4.009,4.009,0,0,0,6.559,1.093.755.755,0,0,1,1.088-.225l2.432,1.477c.448.289.576.675.255,1.093a8.435,8.435,0,0,1-15.135-5.109c0-4.82,3.36-8.483,8.128-8.483,4.8,0,8.1,3.6,8.1,8.418,0,.322-.032.675-.064,1a.775.775,0,0,1-.863.739h-10.5Zm16.511-4.307H135.36c-.545,0-.864-.29-.768-.771.608-3.053,3.233-5.078,7.1-5.078,4.447,0,7.391,2.571,7.391,6.395v9.352a.726.726,0,0,1-.8.8h-3.039a.725.725,0,0,1-.8-.8V139.5A5.475,5.475,0,0,1,140,141.589c-3.52,0-5.856-2.024-5.856-5.078,0-3.182,2.3-5.207,5.728-5.207h4.576v-.354c0-1.157-1.088-1.928-2.689-1.928a3.341,3.341,0,0,0-2.463.933,1.159,1.159,0,0,1-.96.578Zm-34.4,10.7H100.8a.726.726,0,0,1-.8-.8V117.551a.726.726,0,0,1,.8-.8h3.136a.726.726,0,0,1,.8.8v7.488h10.591a.727.727,0,0,1,.8.8v3.181a.726.726,0,0,1-.8.8h-7.2l7.744,7.777a.768.768,0,0,1,0,1.158l-2.176,2.218a.738.738,0,0,1-1.153,0l-7.807-7.841v7.295A.726.726,0,0,1,103.936,141.235Zm40.511-6.556h-3.809c-1.28,0-1.792.675-1.792,1.575,0,.835.671,1.51,2.3,1.51,1.984,0,3.3-1.028,3.3-2.539v-.546Zm18.494-1.51a3.712,3.712,0,1,0-3.648,3.791A3.663,3.663,0,0,0,162.941,133.17ZM128.575,131.4a3.654,3.654,0,0,0-6.848,0h6.848Z" transform="translate(-100 -116.748)" fill="#36a635" fill-rule="evenodd"/>
</svg>
