<svg xmlns="http://www.w3.org/2000/svg" width="12.111" height="12.111" viewBox="0 0 12.111 12.111">
  <path id="linkedin_1_" data-name="linkedin (1)" d="M11.015,0H1.1A1.1,1.1,0,0,0,0,1.1v9.92a1.1,1.1,0,0,0,1.1,1.1h9.92a1.1,1.1,0,0,0,1.1-1.1V1.1A1.1,1.1,0,0,0,11.015,0ZM3.748,10.457a.319.319,0,0,1-.319.319H2.072a.319.319,0,0,1-.319-.319V4.768a.319.319,0,0,1,.319-.319H3.429a.319.319,0,0,1,.319.319Zm-1-6.544A1.289,1.289,0,1,1,4.04,2.624,1.289,1.289,0,0,1,2.75,3.913Zm8.09,6.57a.293.293,0,0,1-.293.293H9.09a.293.293,0,0,1-.293-.293V7.815c0-.4.117-1.744-1.04-1.744-.9,0-1.08.922-1.116,1.335v3.078a.293.293,0,0,1-.293.293H4.939a.293.293,0,0,1-.293-.293V4.743a.293.293,0,0,1,.293-.293H6.348a.293.293,0,0,1,.293.293v.5a2,2,0,0,1,1.88-.885c2.332,0,2.319,2.179,2.319,3.376v2.753Z" fill="#0077b7"/>
</svg>
