<?xml version="1.0" encoding="UTF-8" standalone="no"?><!DOCTYPE svg PUBLIC "-//W3C//DTD SVG 1.1//EN" "http://www.w3.org/Graphics/SVG/1.1/DTD/svg11.dtd"><svg width="100%" height="100%" viewBox="0 0 425 543" version="1.1" xmlns="http://www.w3.org/2000/svg" xmlns:xlink="http://www.w3.org/1999/xlink" xml:space="preserve" xmlns:serif="http://www.serif.com/" style="fill-rule:evenodd;clip-rule:evenodd;stroke-linejoin:round;stroke-miterlimit:2;"><g><path d="M294.419,196.394c3.032,-0.362 5.937,-0.377 8.606,0c1.545,-3.543 1.81,-9.651 0.421,-16.302c-2.065,-9.886 -4.861,-15.868 -10.638,-14.937c-5.777,0.931 -5.99,8.093 -3.925,17.979c1.162,5.562 3.232,10.315 5.536,13.26Z" style="fill:#231f20;fill-rule:nonzero;"/><path d="M244.825,204.218c4.133,1.813 6.673,3.015 7.668,1.965c0.639,-0.656 0.447,-1.906 -0.54,-3.518c-2.039,-3.33 -6.235,-6.707 -10.688,-8.604c-9.104,-3.919 -19.962,-2.615 -28.338,3.404c-2.766,2.026 -5.388,4.832 -5.012,6.537c0.122,0.551 0.535,0.966 1.506,1.102c2.28,0.261 10.247,-3.767 19.424,-4.329c6.48,-0.397 11.846,1.629 15.98,3.443Z" style="fill:#231f20;fill-rule:nonzero;"/><path d="M236.51,208.961c-5.383,0.85 -8.353,2.625 -10.258,4.275c-1.627,1.423 -2.633,2.994 -2.624,4.099c0.004,0.526 0.231,0.829 0.412,0.981c0.245,0.217 0.536,0.337 0.885,0.337c1.216,0 3.939,-1.093 3.939,-1.093c7.492,-2.681 12.434,-2.357 17.332,-1.798c2.706,0.303 3.985,0.472 4.578,-0.456c0.176,-0.266 0.389,-0.843 -0.153,-1.722c-1.262,-2.046 -6.697,-5.503 -14.111,-4.623Z" style="fill:#231f20;fill-rule:nonzero;"/><path d="M277.672,226.377c3.655,1.796 7.681,1.091 8.991,-1.574c1.309,-2.666 -0.593,-6.283 -4.247,-8.079c-3.657,-1.796 -7.681,-1.091 -8.991,1.575c-1.31,2.665 0.592,6.282 4.247,8.078Z" style="fill:#231f20;fill-rule:nonzero;"/><path d="M301.172,205.843c-2.969,-0.05 -5.433,3.211 -5.502,7.282c-0.069,4.072 2.283,7.414 5.252,7.465c2.97,0.05 5.432,-3.211 5.502,-7.282c0.069,-4.073 -2.282,-7.415 -5.252,-7.465Z" style="fill:#231f20;fill-rule:nonzero;"/><path d="M101.716,279.269c-0.739,-0.925 -1.953,-0.643 -3.128,-0.37c-0.821,0.192 -1.751,0.409 -2.77,0.39c-2.184,-0.041 -4.033,-0.976 -5.072,-2.57c-1.353,-2.078 -1.275,-5.175 0.219,-8.722c0.201,-0.477 0.438,-1.008 0.696,-1.587c2.382,-5.343 6.368,-14.286 1.893,-22.808c-3.368,-6.414 -8.862,-10.408 -15.467,-11.248c-6.341,-0.803 -12.869,1.549 -17.033,6.142c-6.569,7.248 -7.595,17.109 -6.325,20.594c0.465,1.276 1.193,1.629 1.722,1.701c1.118,0.151 2.771,-0.663 3.806,-3.447c0.075,-0.201 0.174,-0.512 0.297,-0.906c0.461,-1.473 1.32,-4.214 2.727,-6.412c1.696,-2.651 4.339,-4.476 7.441,-5.14c3.159,-0.677 6.389,-0.075 9.092,1.695c4.602,3.013 6.374,8.651 4.41,14.032c-1.016,2.782 -2.666,8.103 -2.302,12.474c0.736,8.849 6.178,12.402 11.068,12.78c4.754,0.179 8.077,-2.489 8.918,-4.441c0.496,-1.153 0.078,-1.856 -0.192,-2.157Z" style="fill:#231f20;fill-rule:nonzero;"/><path d="M146.913,116.754c15.505,-17.918 34.595,-33.497 51.694,-42.244c0.591,-0.302 1.219,0.339 0.898,0.921c-1.357,2.459 -3.972,7.723 -4.8,11.717c-0.13,0.622 0.548,1.091 1.073,0.733c10.639,-7.251 29.144,-15.021 45.375,-16.02c0.698,-0.042 1.035,0.852 0.48,1.277c-2.468,1.893 -5.168,4.514 -7.14,7.164c-0.335,0.451 -0.02,1.101 0.542,1.105c11.399,0.08 27.466,4.069 37.938,9.942c0.71,0.398 0.205,1.771 -0.588,1.589c-15.845,-3.632 -41.783,-6.387 -68.725,0.184c-24.053,5.867 -42.412,14.925 -55.805,24.666c-0.677,0.493 -1.49,-0.401 -0.942,-1.034Zm77.227,173.605c0.001,0.003 0.004,0.006 0.005,0.01c0.003,0.006 0.005,0.014 0.008,0.02c-0.005,-0.01 -0.008,-0.02 -0.013,-0.03Zm63.945,7.548c0.459,-0.193 0.776,-0.719 0.723,-1.239c-0.065,-0.641 -0.637,-1.107 -1.277,-1.041c0,0 -33.091,4.898 -64.352,-6.546c3.404,-11.067 12.459,-7.07 26.144,-5.966c24.666,1.47 46.774,-2.133 63.112,-6.822c14.157,-4.064 32.753,-12.074 47.195,-23.473c4.872,10.7 6.592,22.477 6.592,22.477c0,0 3.771,-0.675 6.923,1.265c2.977,1.832 5.161,5.642 3.67,15.491c-3.037,18.4 -10.859,33.335 -24.004,47.073c-8,8.613 -17.715,16.101 -28.83,21.547c-5.902,3.1 -12.188,5.783 -18.826,7.951c-49.554,16.184 -100.277,-1.609 -116.628,-39.819c-1.305,-2.872 -2.408,-5.879 -3.279,-9.025c-6.968,-25.18 -1.052,-55.389 17.44,-74.404c0.001,-0.001 -0.003,-0.007 -0.002,-0.009c1.14,-1.211 2.303,-2.637 2.303,-4.432c0,-1.5 -0.953,-3.084 -1.781,-4.206c-6.468,-9.383 -28.877,-25.373 -24.379,-56.317c3.23,-22.229 22.671,-37.885 40.797,-36.957c1.531,0.079 3.065,0.173 4.593,0.264c7.856,0.464 14.708,1.472 21.175,1.743c10.822,0.467 20.555,-1.106 32.081,-10.71c3.889,-3.241 7.005,-6.05 12.281,-6.944c0.553,-0.094 1.933,-0.588 4.69,-0.459c2.814,0.15 5.492,0.923 7.9,2.525c9.24,6.15 10.551,21.043 11.03,31.938c0.273,6.219 1.025,21.265 1.282,25.584c0.588,9.877 3.184,11.27 8.437,12.999c2.953,0.972 5.696,1.697 9.737,2.831c12.232,3.435 19.484,6.919 24.056,11.395c2.726,2.797 3.994,5.769 4.385,8.603c1.443,10.522 -8.169,23.521 -33.613,35.331c-27.815,12.91 -61.557,16.178 -84.871,13.582c-1.789,-0.199 -8.146,-0.92 -8.168,-0.923c-18.649,-2.512 -29.287,21.59 -18.095,38.101c7.213,10.641 26.861,17.568 46.519,17.571c45.072,0.006 79.716,-19.242 92.602,-35.865c0.386,-0.497 0.424,-0.551 1.032,-1.469c0.633,-0.956 0.111,-1.482 -0.679,-0.942c-10.529,7.204 -57.294,35.805 -107.316,27.201c0,0 -6.079,-1 -11.627,-3.159c-4.41,-1.715 -13.637,-5.959 -14.759,-15.428c40.369,12.485 65.787,0.683 65.787,0.683Zm-221.73,-95.937c-14.039,2.73 -26.413,10.686 -33.979,21.678c-4.523,-3.772 -12.948,-11.074 -14.437,-13.919c-12.08,-22.939 13.185,-67.536 30.833,-92.721c43.617,-62.243 111.93,-109.355 143.554,-100.808c5.14,1.455 22.167,21.197 22.167,21.197c0,0 -31.611,17.539 -60.926,41.988c-39.499,30.413 -69.337,74.618 -87.212,122.585Zm23.591,105.258c-2.124,0.363 -4.292,0.507 -6.478,0.455c-21.124,-0.567 -43.941,-19.584 -46.209,-42.137c-2.506,-24.929 10.231,-44.114 32.784,-48.662c2.696,-0.544 5.954,-0.857 9.467,-0.675c12.637,0.692 31.257,10.395 35.511,37.921c3.768,24.379 -2.216,49.201 -25.075,53.098Zm286.154,-44.141c-0.182,-0.64 -1.359,-4.949 -2.979,-10.142c-1.621,-5.193 -3.297,-8.848 -3.297,-8.848c6.496,-9.727 6.612,-18.426 5.749,-23.352c-0.923,-6.107 -3.465,-11.311 -8.589,-16.691c-5.125,-5.38 -15.605,-10.889 -30.334,-15.024c-1.685,-0.473 -7.24,-1.997 -7.729,-2.146c-0.037,-0.32 -0.405,-18.22 -0.741,-25.904c-0.244,-5.554 -0.721,-14.226 -3.411,-22.769c-3.207,-11.561 -8.794,-21.678 -15.769,-28.151c19.247,-19.95 31.261,-41.927 31.232,-60.781c-0.055,-36.258 -44.584,-47.229 -99.458,-24.506c-0.058,0.024 -11.544,4.894 -11.627,4.936c-0.051,-0.051 -21.019,-20.624 -21.334,-20.899c-62.564,-54.57 -258.176,162.859 -195.637,215.666l13.669,11.578c-3.546,9.184 -4.939,19.706 -3.801,31.022c1.461,14.532 8.958,28.465 21.108,39.23c11.535,10.218 26.701,16.687 41.417,16.674c24.339,56.085 79.946,90.492 145.147,92.428c69.94,2.077 128.651,-30.74 153.251,-89.692c1.609,-4.139 8.438,-22.781 8.438,-39.237c0,-16.538 -9.35,-23.392 -15.305,-23.392Z" style="fill:#231f20;fill-rule:nonzero;"/><path d="M57.426,480.366c-7.698,0 -11.507,6.058 -13.254,9.965c-0.976,2.183 -1.249,3.907 -2.041,3.907c-1.116,0 -0.316,-1.499 -1.229,-4.824c-1.201,-4.375 -4.822,-9.048 -12.515,-9.048c-8.087,0 -11.551,6.833 -13.193,10.588c-1.122,2.567 -1.124,3.284 -1.988,3.284c-1.25,0 -0.214,-2.039 0.349,-4.435c1.109,-4.721 0.266,-8.328 0.266,-8.328l-12.822,0l0,48.209l17.501,0l0,-23.985c0,-4.731 1.979,-10.735 5.371,-10.735c3.92,0 4.704,3.01 4.704,8.584l0,26.147l17.571,0l0,-23.996c0,-4.212 1.718,-10.735 5.397,-10.735c3.974,0 4.678,4.229 4.678,8.584l0,26.136l17.254,0l0,-28.349c0,-12.581 -4.435,-20.969 -16.049,-20.969Z" style="fill:#030404;fill-rule:nonzero;"/><path d="M354.462,480.366c-7.698,0 -11.507,6.058 -13.254,9.965c-0.977,2.183 -1.25,3.907 -2.041,3.907c-1.116,0 -0.37,-1.905 -1.229,-4.824c-1.283,-4.353 -4.473,-9.048 -12.515,-9.048c-8.088,0 -11.551,6.833 -13.193,10.588c-1.123,2.567 -1.124,3.284 -1.988,3.284c-1.251,0 -0.215,-2.039 0.348,-4.435c1.11,-4.721 0.266,-8.328 0.266,-8.328l-12.821,0l0,48.209l17.5,0l0,-23.985c0,-4.731 1.979,-10.735 5.371,-10.735c3.92,0 4.704,3.01 4.704,8.584l0,26.147l17.571,0l0,-23.996c0,-4.212 1.718,-10.735 5.397,-10.735c3.974,0 4.678,4.229 4.678,8.584l0,26.136l17.255,0l0,-28.349c0,-12.581 -4.435,-20.969 -16.049,-20.969Z" style="fill:#030404;fill-rule:nonzero;"/><path d="M99.095,518.418c-4.184,0.966 -6.353,-0.322 -6.353,-3.097c0,-3.8 3.929,-5.321 9.539,-5.321c2.473,0 4.799,0.214 4.799,0.214c0,1.627 -3.531,7.177 -7.985,8.204Zm4.261,-38.042c-13.406,0 -23.024,4.929 -23.024,4.929l0,14.486c0,0 10.623,-6.107 19.239,-6.107c6.879,0 7.724,3.709 7.41,6.789c0,0 -1.982,-0.525 -8.037,-0.525c-14.263,0 -21.464,6.482 -21.464,16.878c0,9.858 8.093,13.98 14.911,13.98c9.948,0 14.321,-6.685 15.666,-9.857c0.932,-2.201 1.102,-3.683 1.94,-3.683c0.954,0 0.633,1.063 0.586,3.252c-0.08,3.836 0.101,6.736 0.708,9.177l13.19,0l0,-23.725c0,-14.813 -5.241,-25.594 -21.125,-25.594Z" style="fill:#030404;fill-rule:nonzero;"/><rect x="153.308" y="466.881" width="17.5" height="62.814" style="fill:#030404;fill-rule:nonzero;"/><path d="M190.07,505.591c0,-4.335 4.027,-8.279 11.42,-8.279c8.056,0 14.535,3.878 15.988,4.759l0,-16.766c0,0 -5.118,-4.929 -17.699,-4.929c-13.263,0 -24.307,7.761 -24.307,24.465c0,16.703 10.023,25.965 24.271,25.965c11.13,0 17.764,-6.116 17.764,-6.116l0,-15.924c-2.099,1.174 -7.947,5.232 -15.936,5.232c-8.459,0 -11.501,-3.891 -11.501,-8.407Z" style="fill:#030404;fill-rule:nonzero;"/><path d="M252.929,480.376c-10.131,0 -13.984,9.6 -14.762,11.267c-0.779,1.667 -1.163,2.626 -1.8,2.606c-1.106,-0.037 -0.335,-2.047 0.096,-3.349c0.814,-2.459 2.541,-8.911 2.541,-16.841c0,-5.378 -0.727,-7.178 -0.727,-7.178l-15.107,0l0,62.814l17.5,0l0,-23.985c0,-3.907 1.559,-10.736 5.968,-10.736c3.651,0 4.795,2.707 4.795,8.155l0,26.566l17.5,0l0,-25.517c0,-12.376 -2.052,-23.802 -16.004,-23.802Z" style="fill:#030404;fill-rule:nonzero;"/><path d="M274.621,481.541l0,48.154l17.5,0l0,-48.154c0,0 -2.942,1.721 -8.732,1.721c-5.79,0 -8.768,-1.721 -8.768,-1.721Z" style="fill:#030404;fill-rule:nonzero;"/><path d="M283.319,466.393c-5.916,0 -10.712,3.13 -10.712,6.992c0,3.861 4.796,6.991 10.712,6.991c5.916,0 10.712,-3.13 10.712,-6.991c0,-3.862 -4.796,-6.992 -10.712,-6.992Z" style="fill:#030404;fill-rule:nonzero;"/><path d="M130.145,481.541l0,48.154l17.5,0l0,-48.154c0,0 -2.942,1.721 -8.732,1.721c-5.791,0 -8.768,-1.721 -8.768,-1.721Z" style="fill:#030404;fill-rule:nonzero;"/><path d="M138.843,466.393c-5.917,0 -10.713,3.13 -10.713,6.992c0,3.861 4.796,6.991 10.713,6.991c5.916,0 10.712,-3.13 10.712,-6.991c0,-3.862 -4.796,-6.992 -10.712,-6.992Z" style="fill:#030404;fill-rule:nonzero;"/><path d="M400.476,519.336c-4.014,0 -6.966,-5.09 -6.966,-12.182c0,-6.888 3.032,-12.18 6.827,-12.18c4.871,0 6.946,4.467 6.946,12.18c0,8.024 -1.913,12.182 -6.807,12.182Zm4.803,-38.97c-8.996,0 -13.118,6.745 -14.91,10.588c-1.185,2.539 -1.125,3.284 -1.989,3.284c-1.251,0 -0.214,-2.039 0.349,-4.435c1.109,-4.721 0.266,-8.328 0.266,-8.328l-12.822,0l0,61.525l17.501,0l0,-19.505c2.071,3.512 5.907,7.265 11.82,7.265c12.654,0 19.024,-10.707 19.024,-25.173c0,-16.397 -7.625,-25.221 -19.239,-25.221Z" style="fill:#030404;fill-rule:nonzero;"/></g></svg>