<?xml version="1.0" encoding="utf-8"?>
<!-- Generator: Adobe Illustrator 19.2.1, SVG Export Plug-In . SVG Version: 6.00 Build 0)  -->
<svg version="1.1" id="layer" xmlns="http://www.w3.org/2000/svg" xmlns:xlink="http://www.w3.org/1999/xlink" x="0px" y="0px"
	 viewBox="0 0 652 652" style="enable-background:new 0 0 652 652;" xml:space="preserve">
<style type="text/css">
	.st0{fill:#504F4D;}
	.st1{fill:#563E94;}
	.st2{fill:#211645;}
	.st3{enable-background:new    ;}
	.st4{fill:#040000;}
</style>
<g>
	<g>
		<path class="st0" d="M176.5,383.2l-3.7,10.5c-0.1,0.2-0.2,0.3-0.4,0.3h-3.5c-0.3,0-0.4-0.1-0.3-0.4l11.3-31.6
			c0.1-0.2,0.1-0.4,0.2-0.7s0.1-0.7,0.2-1.4c0-0.2,0.1-0.3,0.3-0.3h5.1c0.2,0,0.3,0.1,0.3,0.3l12.2,33.8c0.1,0.2,0,0.4-0.2,0.4h-4
			c-0.2,0-0.3-0.1-0.4-0.3l-3.8-10.6H176.5z M188.5,379.2c-0.3-0.8-0.7-2-1.2-3.4c-0.5-1.5-1-3-1.6-4.5c-0.6-1.6-1.1-3.1-1.6-4.5
			c-0.5-1.5-0.9-2.6-1.1-3.5h-0.1c-0.2,0.8-0.5,1.9-0.9,3.1c-0.4,1.2-0.9,2.6-1.4,4c-0.5,1.4-1,2.9-1.6,4.5c-0.5,1.5-1.1,3-1.5,4.4
			H188.5z"/>
		<path class="st0" d="M202.5,374.6c0-0.5,0-1,0-1.5c0-0.6,0-1.1-0.1-1.6c0-0.5,0-1-0.1-1.5c0-0.4,0-0.8-0.1-1
			c0-0.2,0.1-0.3,0.3-0.3h3.2c0.2,0,0.4,0.1,0.5,0.3c0.1,0.2,0.1,0.6,0.2,1c0,0.5,0.1,1,0.2,1.6c2.3-2.3,4.9-3.4,8-3.4
			c0.9,0,1.9,0.1,2.9,0.4c1,0.3,1.9,0.8,2.7,1.5s1.5,1.8,2.1,3.1c0.5,1.3,0.8,3,0.8,5v15.4c0,0.2-0.1,0.4-0.4,0.4h-3.6
			c-0.2,0-0.4-0.1-0.4-0.4v-14.9c0-2-0.4-3.6-1.3-4.8c-0.9-1.2-2.2-1.8-4.1-1.8c-1.3,0-2.5,0.3-3.6,0.8s-2.1,1.3-2.9,2.3v18.4
			c0,0.2-0.1,0.4-0.3,0.4h-3.7c-0.2,0-0.3-0.1-0.3-0.4V374.6z"/>
		<path class="st0" d="M247.2,383.2l-3.7,10.5c-0.1,0.2-0.2,0.3-0.4,0.3h-3.5c-0.3,0-0.4-0.1-0.3-0.4l11.3-31.6
			c0.1-0.2,0.1-0.4,0.2-0.7c0.1-0.3,0.1-0.7,0.2-1.4c0-0.2,0.1-0.3,0.3-0.3h5.1c0.2,0,0.3,0.1,0.3,0.3l12.2,33.8
			c0.1,0.2,0,0.4-0.2,0.4h-4c-0.2,0-0.3-0.1-0.4-0.3l-3.8-10.6H247.2z M259.2,379.2c-0.3-0.8-0.7-2-1.2-3.4c-0.5-1.5-1-3-1.6-4.5
			c-0.6-1.6-1.1-3.1-1.6-4.5c-0.5-1.5-0.9-2.6-1.1-3.5h-0.1c-0.2,0.8-0.5,1.9-0.9,3.1c-0.4,1.2-0.9,2.6-1.4,4
			c-0.5,1.4-1,2.9-1.6,4.5c-0.5,1.5-1.1,3-1.5,4.4H259.2z"/>
		<path class="st0" d="M284.1,394.6c-1.8,0-3.5-0.3-5-0.8c-1.6-0.5-2.9-1.4-4.1-2.4c-1.2-1.1-2.1-2.4-2.7-4.1c-0.7-1.6-1-3.5-1-5.6
			c0-1.9,0.3-3.7,1-5.3c0.7-1.6,1.6-3,2.9-4.2c1.2-1.2,2.7-2.1,4.5-2.8c1.7-0.7,3.7-1,5.8-1c0.7,0,1.3,0,1.8,0.1
			c0.5,0.1,1,0.1,1.5,0.2V357c0-0.2,0.1-0.3,0.3-0.3h3.7c0.2,0,0.3,0.1,0.3,0.3v32.8c0,0.4,0,0.8,0,1.2c0,0.4,0,0.9,0.1,1.3
			c0,0.2-0.1,0.3-0.3,0.4c-1.5,0.7-3,1.2-4.4,1.5C287,394.4,285.5,394.6,284.1,394.6z M288.7,372.5c-0.4-0.2-0.9-0.3-1.5-0.4
			c-0.6-0.1-1.2-0.1-1.9-0.1c-1.5,0-2.8,0.2-4,0.7c-1.2,0.5-2.2,1.1-3,2c-0.8,0.9-1.5,1.8-1.9,3c-0.5,1.1-0.7,2.4-0.7,3.7
			c0,1.7,0.2,3.1,0.7,4.3s1.1,2.1,2,2.9c0.8,0.7,1.8,1.3,2.8,1.6s2.2,0.5,3.3,0.5c0.7,0,1.4,0,2.2-0.1c0.7-0.1,1.4-0.3,2-0.5V372.5z
			"/>
		<path class="st0" d="M310.5,368.2c1.8,0,3.5,0.3,4.9,1c1.5,0.7,2.7,1.6,3.7,2.8c1,1.2,1.8,2.6,2.4,4.2c0.6,1.6,0.8,3.3,0.8,5.2
			c0,2-0.3,3.8-0.9,5.4c-0.6,1.6-1.4,3-2.4,4.2c-1,1.1-2.3,2-3.7,2.7c-1.5,0.6-3.1,1-4.8,1c-2.1,0-3.9-0.4-5.4-1.1
			c-1.5-0.8-2.8-1.8-3.7-3c-1-1.2-1.7-2.7-2.2-4.2c-0.5-1.6-0.7-3.2-0.7-4.8c0-1.8,0.3-3.6,0.8-5.2c0.6-1.6,1.4-3,2.4-4.2
			c1-1.2,2.3-2.1,3.8-2.8C307,368.6,308.6,368.2,310.5,368.2z M310.3,372c-1.1,0-2.1,0.2-3,0.7c-0.9,0.5-1.7,1.1-2.3,1.9
			c-0.6,0.8-1.1,1.8-1.5,2.9c-0.4,1.1-0.5,2.4-0.5,3.8c0,1.3,0.2,2.6,0.5,3.7c0.3,1.2,0.8,2.2,1.5,3c0.6,0.9,1.4,1.5,2.4,2
			c1,0.5,2.1,0.7,3.3,0.7c0.9,0,1.8-0.2,2.7-0.5c0.9-0.4,1.6-0.9,2.3-1.7c0.7-0.8,1.2-1.8,1.7-2.9c0.4-1.2,0.6-2.6,0.6-4.2
			c0-1.2-0.1-2.4-0.4-3.5c-0.3-1.1-0.7-2.1-1.4-3c-0.6-0.9-1.4-1.6-2.4-2.1C312.8,372.3,311.6,372,310.3,372z"/>
		<path class="st0" d="M331.8,356.7c0.1,0,0.2,0,0.3,0c0.1,0,0.1,0.1,0.1,0.3v12.2c1.7-0.7,3.6-1,5.6-1c1.8,0,3.4,0.3,4.9,0.9
			c1.5,0.6,2.7,1.5,3.7,2.6c1,1.1,1.8,2.4,2.4,3.9c0.6,1.5,0.8,3.1,0.8,4.9c0,2.4-0.4,4.4-1.2,6.2c-0.8,1.8-1.9,3.2-3.2,4.4
			c-1.3,1.2-2.9,2.1-4.6,2.7c-1.7,0.6-3.5,0.9-5.4,0.9c-1.3,0-2.6-0.1-3.7-0.2c-1.2-0.2-2.3-0.4-3.4-0.8c-0.2,0-0.3-0.2-0.3-0.5v-36
			c0-0.2,0.1-0.3,0.4-0.3H331.8z M345.2,380.8c0-2.7-0.7-4.8-2.2-6.4c-1.5-1.6-3.4-2.4-5.9-2.4c-1.1,0-2,0.1-2.8,0.2
			c-0.8,0.2-1.5,0.4-2.1,0.7v17.5c0.5,0.2,1,0.3,1.6,0.3c0.6,0.1,1.2,0.1,1.9,0.1c1.2,0,2.5-0.2,3.6-0.6c1.2-0.4,2.2-1,3.1-1.9
			c0.9-0.8,1.6-1.9,2.1-3.1C344.9,383.9,345.2,382.4,345.2,380.8z"/>
		<path class="st0" d="M358,381.9c0,1.2,0.2,2.4,0.5,3.5c0.3,1.1,0.9,2,1.6,2.8c0.7,0.8,1.6,1.4,2.7,1.9c1.1,0.5,2.4,0.7,3.8,0.7
			c1.1,0,2.3-0.1,3.4-0.3c1.1-0.2,2.1-0.6,3.1-1.1c0.2-0.1,0.3,0,0.3,0.2v3c0,0.2-0.1,0.4-0.3,0.5c-0.9,0.5-1.9,0.8-3.1,1.1
			c-1.2,0.3-2.6,0.4-4.2,0.4c-2.3,0-4.2-0.4-5.7-1.1c-1.6-0.7-2.8-1.7-3.8-3c-1-1.2-1.6-2.6-2.1-4.2c-0.4-1.5-0.7-3.1-0.7-4.7
			c0-1.8,0.3-3.5,0.8-5.2c0.5-1.6,1.3-3.1,2.3-4.3c1-1.2,2.2-2.2,3.6-2.9c1.4-0.7,3-1.1,4.8-1.1c1.9,0,3.5,0.3,4.7,1
			c1.3,0.7,2.3,1.5,3.1,2.5s1.4,2.2,1.7,3.4c0.4,1.2,0.5,2.4,0.5,3.5c0,0.7,0,1.2-0.1,1.7c0,0.5-0.1,0.8-0.2,1
			c0,0.2-0.1,0.3-0.4,0.3c-0.4,0.1-1.1,0.1-2.1,0.2c-1,0-2.1,0.1-3.3,0.1H358z M367.8,378.7c1.3,0,2.1,0,2.6,0c0.4,0,0.7,0,0.8-0.1
			c0-0.1,0.1-0.2,0.1-0.3c0-0.1,0-0.2,0-0.3c0-0.5-0.1-1-0.3-1.7c-0.2-0.7-0.5-1.4-1-2.1s-1.1-1.2-1.9-1.7c-0.8-0.5-1.8-0.7-3-0.7
			c-1.1,0-2,0.2-2.8,0.6c-0.8,0.4-1.5,0.9-2.1,1.5c-0.6,0.6-1,1.4-1.4,2.2c-0.3,0.8-0.5,1.7-0.7,2.5H367.8z"/>
		<path class="st0" d="M415.9,393.1c0,0.3-0.1,0.5-0.3,0.5c-0.9,0.4-1.9,0.6-3.1,0.8c-1.2,0.1-2.5,0.2-4,0.2c-2.2,0-4.3-0.3-6.4-1
			c-2.1-0.7-4-1.7-5.6-3.1c-1.6-1.4-3-3.3-4-5.5c-1-2.3-1.5-5-1.5-8.2c0-2.6,0.4-5,1.3-7.2c0.9-2.2,2.1-4,3.7-5.6
			c1.6-1.5,3.5-2.7,5.8-3.6c2.3-0.9,4.8-1.3,7.5-1.3c1.8,0,3.2,0.1,4.2,0.3c1,0.2,1.9,0.4,2.4,0.7c0.2,0.1,0.3,0.2,0.3,0.4v3.5
			c0,0.2-0.1,0.3-0.4,0.3c-1.5-0.8-3.7-1.2-6.7-1.2c-2,0-3.9,0.3-5.6,1c-1.7,0.6-3.1,1.6-4.3,2.7c-1.2,1.2-2.2,2.6-2.8,4.3
			c-0.7,1.7-1,3.6-1,5.6c0,2.7,0.5,5,1.4,6.8c0.9,1.8,2,3.2,3.4,4.3c1.4,1.1,2.9,1.8,4.4,2.2c1.6,0.4,3.1,0.7,4.4,0.7
			c1.3,0,2.5-0.1,3.5-0.2c1-0.1,2-0.4,3-0.8c0.2,0,0.3,0,0.3,0.2V393.1z"/>
		<path class="st0" d="M431.2,368.2c1.8,0,3.5,0.3,4.9,1c1.5,0.7,2.7,1.6,3.7,2.8c1,1.2,1.8,2.6,2.4,4.2c0.6,1.6,0.8,3.3,0.8,5.2
			c0,2-0.3,3.8-0.9,5.4c-0.6,1.6-1.4,3-2.4,4.2c-1,1.1-2.3,2-3.7,2.7c-1.5,0.6-3.1,1-4.8,1c-2.1,0-3.9-0.4-5.4-1.1
			c-1.5-0.8-2.8-1.8-3.7-3c-1-1.2-1.7-2.7-2.2-4.2c-0.5-1.6-0.7-3.2-0.7-4.8c0-1.8,0.3-3.6,0.8-5.2c0.6-1.6,1.4-3,2.4-4.2
			c1-1.2,2.3-2.1,3.8-2.8C427.7,368.6,429.4,368.2,431.2,368.2z M431,372c-1.1,0-2.1,0.2-3,0.7c-0.9,0.5-1.7,1.1-2.3,1.9
			c-0.6,0.8-1.1,1.8-1.5,2.9c-0.4,1.1-0.5,2.4-0.5,3.8c0,1.3,0.2,2.6,0.5,3.7c0.3,1.2,0.8,2.2,1.5,3c0.6,0.9,1.4,1.5,2.4,2
			c1,0.5,2.1,0.7,3.3,0.7c0.9,0,1.8-0.2,2.7-0.5c0.9-0.4,1.6-0.9,2.3-1.7c0.7-0.8,1.2-1.8,1.7-2.9c0.4-1.2,0.6-2.6,0.6-4.2
			c0-1.2-0.1-2.4-0.4-3.5s-0.7-2.1-1.4-3c-0.6-0.9-1.4-1.6-2.4-2.1C433.5,372.3,432.4,372,431,372z"/>
		<path class="st0" d="M448.8,394.1c-0.2,0-0.3-0.1-0.3-0.4v-19.5c0-1.1,0-2.2-0.1-3.1c0-0.9-0.1-1.6-0.2-2.1c0-0.2,0.1-0.3,0.3-0.3
			h3.3c0.2,0,0.3,0.1,0.4,0.3c0.1,0.3,0.1,0.7,0.2,1.1c0.1,0.5,0.1,0.9,0.1,1.4c2.3-2.2,4.9-3.3,7.8-3.3c3.2,0,5.5,1.3,6.9,3.8
			c1.1-1.1,2.4-2,3.7-2.7s3-1.1,4.9-1.1c1,0,2,0.1,2.9,0.4c1,0.3,1.9,0.8,2.7,1.6c0.8,0.7,1.5,1.8,2,3c0.5,1.3,0.8,2.9,0.8,4.9v15.6
			c0,0.2-0.1,0.3-0.4,0.3h-3.6c-0.2,0-0.4-0.1-0.4-0.4v-15.2c0-1.8-0.4-3.3-1.3-4.5c-0.8-1.2-2.2-1.9-4-1.9c-1.3,0-2.5,0.3-3.6,0.8
			s-2,1.3-2.8,2.2c0.1,0.3,0.1,0.8,0.2,1.4c0.1,0.6,0.1,1.3,0.1,1.9v15.3c0,0.2-0.1,0.4-0.4,0.4h-3.6c-0.2,0-0.4-0.1-0.4-0.4v-15.4
			c0-2-0.4-3.5-1.3-4.6c-0.9-1.1-2.2-1.6-3.9-1.6c-1.2,0-2.3,0.2-3.3,0.7s-2,1.2-3,2.2v18.7c0,0.2-0.1,0.3-0.3,0.3H448.8z"/>
		<path class="st0" d="M501.5,368.2c1.9,0,3.6,0.3,5.1,0.9c1.5,0.6,2.8,1.5,3.8,2.6c1,1.1,1.8,2.4,2.4,3.9c0.6,1.5,0.8,3.1,0.8,4.9
			c0,2.4-0.4,4.4-1.3,6.2c-0.9,1.8-2,3.2-3.4,4.4c-1.4,1.2-3,2-4.8,2.6c-1.8,0.6-3.6,0.9-5.4,0.9c-0.6,0-1.1,0-1.5-0.1
			c-0.4,0-0.8-0.1-1.2-0.2v10.4c0,0.2-0.1,0.3-0.3,0.4c-0.3,0-0.7,0.1-1.1,0.1c-0.4,0-0.8,0.1-1.2,0.1c-0.4,0.1-0.7,0.1-1,0.1
			c-0.3,0-0.5,0.1-0.5,0.1c-0.2,0-0.3-0.1-0.3-0.3v-32.4c0-0.2,0-0.6,0-1.1c0-0.5,0-0.9-0.1-1.2c0-0.1,0-0.2,0.1-0.2
			c0.9-0.3,2.2-0.8,3.9-1.3S499.3,368.2,501.5,368.2z M501,372c-0.9,0-1.8,0.1-2.6,0.2c-0.8,0.1-1.6,0.3-2.3,0.6v17.6
			c0.5,0.1,0.9,0.2,1.5,0.3c0.5,0,1,0.1,1.5,0.1c1.2,0,2.5-0.2,3.7-0.6c1.2-0.4,2.3-1,3.3-1.8c1-0.8,1.7-1.9,2.3-3.1
			c0.6-1.3,0.9-2.8,0.9-4.5c0-2.7-0.7-4.8-2.2-6.4C505.6,372.8,503.6,372,501,372z"/>
		<path class="st0" d="M537,389.6c0,0.5,0,0.9,0,1.3c0,0.4,0,0.8,0.1,1.2c0,0.1,0,0.2-0.1,0.2c-1.9,0.9-3.6,1.5-5.1,1.8
			c-1.5,0.3-3.1,0.4-4.6,0.4c-1.4,0-2.7-0.2-3.9-0.5c-1.2-0.3-2.2-0.9-3.1-1.5c-0.9-0.7-1.5-1.5-2-2.5c-0.5-1-0.7-2.2-0.7-3.6
			c0-1.4,0.3-2.6,0.9-3.6c0.6-1,1.4-1.8,2.5-2.5c1-0.7,2.3-1.1,3.7-1.5c1.4-0.3,2.9-0.5,4.6-0.5c1,0,1.7,0,2.3,0c0.6,0,1,0,1.3,0.1
			v-1.2c0-0.4-0.1-0.9-0.2-1.5c-0.1-0.6-0.4-1.2-0.8-1.7c-0.4-0.5-1-1-1.8-1.4c-0.8-0.4-1.8-0.6-3.1-0.6c-1.2,0-2.4,0.1-3.6,0.4
			c-1.1,0.3-2.1,0.7-3,1.1c-0.2,0.1-0.4,0-0.4-0.3v-3.2c0-0.2,0.1-0.3,0.3-0.4c1-0.5,2.1-0.9,3.4-1.1s2.6-0.4,4-0.4
			c1.7,0,3.1,0.3,4.3,0.8s2.2,1.2,2.9,2.1c0.7,0.9,1.3,1.9,1.7,3.1c0.4,1.2,0.5,2.4,0.5,3.8V389.6z M532.8,382
			c-0.4-0.1-0.9-0.1-1.4-0.2c-0.6,0-1.2-0.1-2-0.1c-2.5,0-4.4,0.4-5.6,1.2c-1.2,0.8-1.8,2-1.8,3.4c0,0.6,0.1,1.2,0.3,1.7
			c0.2,0.6,0.6,1.1,1.1,1.5c0.5,0.4,1.1,0.8,1.9,1c0.8,0.3,1.7,0.4,2.9,0.4c1.7,0,3.3-0.3,4.7-0.9V382z"/>
		<path class="st0" d="M544.3,374.6c0-0.5,0-1,0-1.5c0-0.6,0-1.1-0.1-1.6c0-0.5,0-1-0.1-1.5c0-0.4,0-0.8-0.1-1
			c0-0.2,0.1-0.3,0.3-0.3h3.2c0.2,0,0.4,0.1,0.5,0.3c0.1,0.2,0.1,0.6,0.2,1c0,0.5,0.1,1,0.2,1.6c2.3-2.3,4.9-3.4,8-3.4
			c0.9,0,1.9,0.1,2.9,0.4c1,0.3,1.9,0.8,2.7,1.5c0.8,0.7,1.5,1.8,2.1,3.1c0.5,1.3,0.8,3,0.8,5v15.4c0,0.2-0.1,0.4-0.4,0.4h-3.6
			c-0.2,0-0.4-0.1-0.4-0.4v-14.9c0-2-0.4-3.6-1.3-4.8c-0.9-1.2-2.2-1.8-4.1-1.8c-1.3,0-2.5,0.3-3.6,0.8c-1.1,0.6-2.1,1.3-2.9,2.3
			v18.4c0,0.2-0.1,0.4-0.3,0.4h-3.7c-0.2,0-0.3-0.1-0.3-0.4V374.6z"/>
		<path class="st0" d="M572.7,368.8c0.2,0,0.3,0.1,0.4,0.3c1.1,2.9,2,5.4,2.8,7.6c0.8,2.2,1.5,4.1,2.1,5.7c0.6,1.6,1.1,2.9,1.4,4
			c0.4,1.1,0.6,1.9,0.8,2.5c0.8-2.4,1.8-5.2,2.9-8.3c1.1-3.1,2.5-6.9,4.1-11.4c0.1-0.2,0.2-0.3,0.4-0.3h3.7c0.2,0,0.3,0.1,0.2,0.4
			c-1,2.8-2,5.7-3.1,8.8c-1.1,3-2.3,6.1-3.5,9.2c-1.2,3.1-2.5,6.1-3.7,9.1c-1.3,3-2.5,5.9-3.8,8.7c-0.1,0.2-0.3,0.3-0.6,0.4
			l-3.9,0.3c-0.2,0-0.3-0.1-0.2-0.4c0.8-1.6,1.6-3.4,2.5-5.4c0.9-2,1.8-4,2.7-6.1c0.1-0.2,0.1-0.4,0-0.7c-0.2-0.5-0.5-1.3-0.9-2.3
			c-0.4-1-0.9-2.2-1.4-3.5c-0.5-1.3-1.1-2.7-1.7-4.3c-0.6-1.5-1.3-3.1-1.9-4.7c-0.6-1.6-1.3-3.2-1.9-4.7c-0.6-1.6-1.2-3-1.7-4.4
			c-0.1-0.2,0-0.3,0.3-0.3H572.7z"/>
	</g>
	<g>
		<polygon class="st1" points="98.5,238.7 98.5,367.6 131.4,341.3 131.4,256.6 		"/>
		<polygon class="st1" points="83.2,339.5 56.5,351.1 56.5,249.8 83.2,257.7 		"/>
		<polygon class="st1" points="21,336.5 41.2,331.2 41.2,266.5 21,263.3 		"/>
		<polygon class="st2" points="240,256.6 211.9,302.7 183.5,256.6 168.5,256.6 168.5,341.3 182.6,341.3 182.6,279.4 211.6,326 
			240.6,279.1 240.6,341.3 254.7,341.3 254.7,256.6 		"/>
		<g>
			<path class="st2" d="M302.1,341.3l-0.1-7.6c-4.2,6.2-11.1,9.1-18.5,9.1c-10.8,0-18.3-7-18.3-17.1c0-11,7-17.6,21-19.7l15.4-2.4
				v-1c0-6.3-4.7-9.8-12.8-9.8c-7.8,0-14.4,3.3-20.1,8.5v-13.7c5.2-4.2,12.4-7,21.1-7c16.6,0,25.6,8.5,25.6,22.6v38.1H302.1z
				 M286.9,331.4c8.7,0,14.8-5.7,14.8-13.8v-3.3l-13.2,2.2c-6.4,1.1-9.7,3.9-9.7,8.1C278.9,328.9,282.1,331.4,286.9,331.4"/>
			<path class="st2" d="M361.8,295.4c-0.6-0.4-1.8-0.5-3.6-0.5c-10.3,0-16.6,8-16.6,20.2v26.2h-13.9V282h13.8v10.2
				c2.9-6.9,9.9-11.4,17.7-11.4c1.6,0,2.4,0.1,2.7,0.4V295.4z"/>
		</g>
		<polygon class="st2" points="370.8,256.6 370.8,341.3 384.7,341.3 384.7,317.8 387.8,315 409,341.3 426.2,341.3 398.4,307.8 
			424.2,282 407,282 384.7,304.4 384.7,256.6 		"/>
		<g>
			<path class="st2" d="M478.9,336.5c-6.2,3.9-14,6.3-22.9,6.3c-19.6,0-32-13.3-32-31.2c0-17.8,12.4-31,29.8-31
				c17.3,0,28.5,13.1,28.5,30.6c0,1.9,0,3-0.4,4.8h-44c1.1,8.2,7.9,14.8,19,14.8c7.5,0,14.8-2.7,21.9-8V336.5z M468.6,305.6
				c-0.8-8.1-6.7-13.7-15-13.7c-8.5,0-14.7,6.7-15.6,13.7H468.6z"/>
			<path class="st2" d="M517.6,329.9c2.3,0,4.7-0.5,6.5-1.8v12.5c-2.3,1.3-5.8,2.2-10.7,2.2c-12,0-19-7.3-19-19.7v-29.2H484
				l24.5-31.2V282h15.7v11.9h-15.7v26.6C508.4,327.2,511.3,329.9,517.6,329.9"/>
			<path class="st2" d="M591.6,311.7c0,17.4-13.4,31.1-31.6,31.1s-31.6-13.7-31.6-31.1c0-17.4,13.4-31.1,31.6-31.1
				S591.6,294.2,591.6,311.7 M542.3,311.7c0,10.2,7.8,18.3,17.7,18.3c9.9,0,17.7-8.1,17.7-18.3c0-10.2-7.8-18.3-17.7-18.3
				C550.1,293.4,542.3,301.5,542.3,311.7"/>
		</g>
	</g>
	<g id="Layer_2_1_">
		<g class="st3">
			<path class="st4" d="M592,270.1h10.7v2.3h-4.1v12.4h-2.6v-12.4H592V270.1z"/>
			<path class="st4" d="M608.4,274.1v10.8h-2.5v-14.8h2.6l5,7.5l4.9-7.5h2.6v14.8h-2.4v-10.8l-4.4,6.7h-1.2L608.4,274.1z"/>
		</g>
	</g>
</g>
</svg>
