<svg xmlns="http://www.w3.org/2000/svg" width="132.614" height="92.709" viewBox="0 0 132.614 92.709">
  <g id="salesforce-pardot" transform="translate(-22.379 -5.932)">
    <path id="Path_9542" data-name="Path 9542" d="M77.458,16.078A23.231,23.231,0,0,1,114.653,21a28.005,28.005,0,0,1,11.541-2.438,28.8,28.8,0,0,1,0,57.6,28.017,28.017,0,0,1-5.615-.58,20.928,20.928,0,0,1-18.213,10.691,20.206,20.206,0,0,1-9.1-2.121A23.828,23.828,0,0,1,49.008,83.1a21.49,21.49,0,0,1-4.551.476A22.367,22.367,0,0,1,33.432,41.916a25.2,25.2,0,0,1-2.113-10.254A25.686,25.686,0,0,1,77.434,16.047" fill="#139cd8"/>
    <path id="Path_9543" data-name="Path 9543" d="M132.705,231.056a.262.262,0,0,0,.056.318c.262.159.476.318.739.476a7.9,7.9,0,0,0,3.971.9c2.7,0,4.392-1.43,4.392-3.757v-.055c0-2.168-1.906-2.915-3.709-3.495l-.2-.079c-1.327-.421-2.486-.794-2.486-1.692v-.055c0-.739.691-1.326,1.747-1.326a7.414,7.414,0,0,1,3.44.9.246.246,0,0,0,.341-.055v-.055c.056-.159.532-1.374.532-1.485a.3.3,0,0,0-.1-.318,7.558,7.558,0,0,0-3.916-1.057h-.262c-2.486,0-4.234,1.485-4.234,3.654v.055c0,2.28,1.906,3.018,3.709,3.5l.262.1c1.327.421,2.439.739,2.439,1.644v.056c0,.85-.739,1.486-1.906,1.486a6.358,6.358,0,0,1-3.495-1.009c-.215-.1-.318-.215-.421-.262a.247.247,0,0,0-.342.055v.055Z" transform="translate(-91.116 -177.021)" fill="#fff"/>
    <path id="Path_9544" data-name="Path 9544" d="M361.036,231.057a.261.261,0,0,0,.055.318c.263.159.476.318.739.476a7.9,7.9,0,0,0,3.971.9c2.7,0,4.393-1.43,4.393-3.757v-.055c0-2.168-1.906-2.915-3.709-3.495l-.191-.079c-1.326-.421-2.486-.794-2.486-1.692v-.055c0-.739.691-1.326,1.747-1.326a7.413,7.413,0,0,1,3.439.9.246.246,0,0,0,.341-.055v-.055c.056-.159.533-1.374.533-1.485a.3.3,0,0,0-.1-.318,7.566,7.566,0,0,0-3.916-1.057h-.262c-2.486,0-4.233,1.485-4.233,3.654v.055c0,2.28,1.906,3.018,3.709,3.5l.262.1c1.327.421,2.439.739,2.439,1.644v.056c0,.85-.738,1.486-1.906,1.486a6.36,6.36,0,0,1-3.495-1.009c-.214-.1-.318-.215-.421-.262a.247.247,0,0,0-.342.055v.055Z" transform="translate(-279.741 -177.021)" fill="#fff"/>
    <path id="Path_9545" data-name="Path 9545" d="M479.772,224.492a5.736,5.736,0,0,0-1.009-1.962,5.462,5.462,0,0,0-1.747-1.326,6.474,6.474,0,0,0-4.869,0,5.445,5.445,0,0,0-1.747,1.326,4.938,4.938,0,0,0-1.009,1.962,9.539,9.539,0,0,0,0,4.869,5.728,5.728,0,0,0,1.009,1.962,5.449,5.449,0,0,0,1.747,1.326,6.471,6.471,0,0,0,4.869,0,4.762,4.762,0,0,0,1.747-1.326,4.924,4.924,0,0,0,1.009-1.962,9.056,9.056,0,0,0,.318-2.438,8.738,8.738,0,0,0-.318-2.438m-2.279,2.438a5.6,5.6,0,0,1-.738,3.074,2.384,2.384,0,0,1-2.224,1.057A2.537,2.537,0,0,1,472.307,230a6.728,6.728,0,0,1,0-6.14,2.383,2.383,0,0,1,2.224-1.057,2.535,2.535,0,0,1,2.224,1.057,5.482,5.482,0,0,1,.738,3.074" transform="translate(-369.02 -177.445)" fill="#fff"/>
    <path id="Path_9546" data-name="Path 9546" d="M596.084,230.8a.214.214,0,0,0-.254-.159h0a6.207,6.207,0,0,1-1.056.318,8.657,8.657,0,0,1-1.216.1,3.478,3.478,0,0,1-2.6-.953,4.32,4.32,0,0,1-.953-3.121,4.934,4.934,0,0,1,.849-2.963,2.916,2.916,0,0,1,2.542-1.112,8.113,8.113,0,0,1,2.383.318.231.231,0,0,0,.262-.159c.214-.532.373-.953.58-1.533a.215.215,0,0,0-.143-.262h0a8.156,8.156,0,0,0-1.533-.373,15.035,15.035,0,0,0-1.692-.1,6.415,6.415,0,0,0-2.542.476,5.182,5.182,0,0,0-1.85,1.326,5.907,5.907,0,0,0-1.112,1.962,7.341,7.341,0,0,0-.373,2.438,6.671,6.671,0,0,0,1.486,4.5,5.747,5.747,0,0,0,4.5,1.691,8.73,8.73,0,0,0,3.233-.58.246.246,0,0,0,.1-.262Z" transform="translate(-466.745 -177.508)" fill="#fff"/>
    <path id="Path_9547" data-name="Path 9547" d="M654.831,224.093a4.759,4.759,0,0,0-1.009-1.8,4.048,4.048,0,0,0-1.485-1.112,5.749,5.749,0,0,0-2.224-.421,6.232,6.232,0,0,0-2.542.476,4.938,4.938,0,0,0-1.747,1.326,6.088,6.088,0,0,0-1.056,2.01,9,9,0,0,0-.318,2.438,7.151,7.151,0,0,0,.373,2.438,4.519,4.519,0,0,0,1.112,1.962,6.016,6.016,0,0,0,1.906,1.271,6.534,6.534,0,0,0,2.8.421,8.01,8.01,0,0,0,3.868-.739c.1-.056.159-.1.055-.373l-.532-1.43a.175.175,0,0,0-.212-.128h-.058a7.21,7.21,0,0,1-3.177.58,3.878,3.878,0,0,1-2.645-.9,3.591,3.591,0,0,1-.9-2.542h7.68a.207.207,0,0,0,.215-.2h0a5.031,5.031,0,0,0-.1-3.28m-7.625,1.588a4.231,4.231,0,0,1,.635-1.8,2.384,2.384,0,0,1,2.168-1.112,2.479,2.479,0,0,1,2.169,1.112,3.8,3.8,0,0,1,.532,1.8Z" transform="translate(-513.896 -177.467)" fill="#fff"/>
    <path id="Path_9548" data-name="Path 9548" d="M301.352,224.093a4.766,4.766,0,0,0-1.009-1.8,4.049,4.049,0,0,0-1.485-1.112,5.751,5.751,0,0,0-2.224-.421,6.237,6.237,0,0,0-2.542.476,4.938,4.938,0,0,0-1.747,1.326,6.09,6.09,0,0,0-1.056,2.009,9.016,9.016,0,0,0-.318,2.438,7.147,7.147,0,0,0,.373,2.438,4.5,4.5,0,0,0,1.112,1.962,6.021,6.021,0,0,0,1.906,1.271,6.533,6.533,0,0,0,2.8.421,8.013,8.013,0,0,0,3.868-.739c.1-.056.159-.1.055-.373l-.6-1.414a.174.174,0,0,0-.211-.127h-.059a7.2,7.2,0,0,1-3.177.579,3.871,3.871,0,0,1-2.645-.9,3.588,3.588,0,0,1-.9-2.542h7.68a.206.206,0,0,0,.214-.2h0a5.029,5.029,0,0,0-.1-3.28m-7.625,1.588a4.241,4.241,0,0,1,.635-1.8,2.384,2.384,0,0,1,2.169-1.112,2.479,2.479,0,0,1,2.168,1.112,3.8,3.8,0,0,1,.532,1.8Z" transform="translate(-221.885 -177.467)" fill="#fff"/>
    <path id="Path_9549" data-name="Path 9549" d="M199.232,224.774c-.318,0-.691-.056-1.215-.056a7.883,7.883,0,0,0-1.906.262,4.89,4.89,0,0,0-1.589.739,3.24,3.24,0,0,0-1.112,1.271,3.865,3.865,0,0,0-.421,1.747,3.559,3.559,0,0,0,.373,1.748,3.174,3.174,0,0,0,1.009,1.215,4.368,4.368,0,0,0,1.588.691,7.828,7.828,0,0,0,2.01.215,11.2,11.2,0,0,0,2.327-.215c.739-.1,1.692-.318,1.962-.373a3.4,3.4,0,0,0,.532-.159.215.215,0,0,0,.159-.254v-7.037a4.33,4.33,0,0,0-1.215-3.391,5.356,5.356,0,0,0-3.551-1.057,9.118,9.118,0,0,0-2.065.215,7.514,7.514,0,0,0-2.382.85.238.238,0,0,0-.056.318l.532,1.485a.174.174,0,0,0,.211.128h.059a.167.167,0,0,0,.1-.055,8.081,8.081,0,0,1,3.312-.794,3.175,3.175,0,0,1,1.906.477c.421.318.635.794.635,1.851v.318l-1.215-.1m-3.018,5.4a1.458,1.458,0,0,1-.421-.476,1.978,1.978,0,0,1,.421-2.486,3.234,3.234,0,0,1,2.224-.532,14.06,14.06,0,0,1,2.065.159v3.495a13.778,13.778,0,0,1-2.065.262,3.429,3.429,0,0,1-2.224-.421" transform="translate(-140.939 -176.933)" fill="#fff"/>
    <path id="Path_9550" data-name="Path 9550" d="M551.47,221.781a.19.19,0,0,0-.088-.254h0a4.686,4.686,0,0,0-1.271-.214,3.841,3.841,0,0,0-1.962.318,3.353,3.353,0,0,0-1.271.953v-.953a.231.231,0,0,0-.215-.215H544.6a.23.23,0,0,0-.214.215v11.485a.231.231,0,0,0,.214.215h2.01a.231.231,0,0,0,.214-.215V227.4a6.891,6.891,0,0,1,.262-2.01,2.386,2.386,0,0,1,.691-1.112,2.216,2.216,0,0,1,.953-.58,3.9,3.9,0,0,1,1.009-.159,3.948,3.948,0,0,1,.849.1.239.239,0,0,0,.262-.207h0c.159-.373.532-1.43.636-1.644" transform="translate(-431.233 -177.912)" fill="#fff"/>
    <path id="Path_9551" data-name="Path 9551" d="M413.2,192.383l-.739-.159a5.929,5.929,0,0,0-1.056-.1,4.233,4.233,0,0,0-3.233,1.168,6.686,6.686,0,0,0-1.533,3.495l-.1.532h-1.747a.279.279,0,0,0-.263.214l-.262,1.589a.23.23,0,0,0,.182.262h1.779l-1.747,9.579a9.882,9.882,0,0,1-.476,1.907,3.636,3.636,0,0,1-.532,1.112,1.351,1.351,0,0,1-.691.532,2.467,2.467,0,0,1-.9.1c-.159,0-.421-.055-.636-.055a1.411,1.411,0,0,1-.421-.159.223.223,0,0,0-.262.1c-.055.159-.532,1.43-.58,1.533a.239.239,0,0,0,.1.318,5.471,5.471,0,0,0,.691.215,4.33,4.33,0,0,0,1.112.1,5.292,5.292,0,0,0,1.906-.318,3.714,3.714,0,0,0,1.43-1.009,5.329,5.329,0,0,0,1.008-1.692,18,18,0,0,0,.691-2.6l1.747-9.793h2.509a.278.278,0,0,0,.263-.214l.262-1.589a.23.23,0,0,0-.182-.262H409a7.788,7.788,0,0,1,.421-1.747,1.88,1.88,0,0,1,.532-.794,2.22,2.22,0,0,1,.635-.421,4.117,4.117,0,0,1,.85-.1c.214,0,.476.055.635.055a1.057,1.057,0,0,1,.373.1c.262.055.262,0,.318-.1l.58-1.589c.055-.1-.1-.159-.159-.214" transform="translate(-311.918 -153.803)" fill="#fff"/>
    <path id="Path_9552" data-name="Path 9552" d="M267.384,210.379a.23.23,0,0,1-.214.215h-2.01a.23.23,0,0,1-.214-.215V193.985a.23.23,0,0,1,.214-.214h1.962a.23.23,0,0,1,.214.214v16.409Z" transform="translate(-200.387 -155.175)" fill="#fff"/>
  </g>
</svg>
