<svg xmlns="http://www.w3.org/2000/svg" width="13.063" height="10.611" viewBox="0 0 13.063 10.611">
  <path id="Path_9539" data-name="Path 9539" d="M13.064,58.7a5.351,5.351,0,0,1-1.539.422A2.691,2.691,0,0,0,12.7,57.637a5.4,5.4,0,0,1-1.7.651,2.682,2.682,0,0,0-4.566,2.443,7.608,7.608,0,0,1-5.523-2.8,2.683,2.683,0,0,0,.829,3.577,2.68,2.68,0,0,1-1.214-.336V61.2a2.682,2.682,0,0,0,2.149,2.628,2.715,2.715,0,0,1-.706.094,2.572,2.572,0,0,1-.5-.05,2.681,2.681,0,0,0,2.5,1.861A5.376,5.376,0,0,1,.64,66.883,5.693,5.693,0,0,1,0,66.846a7.575,7.575,0,0,0,4.108,1.206,7.572,7.572,0,0,0,7.624-7.624l-.009-.347A5.351,5.351,0,0,0,13.064,58.7Z" transform="translate(-0.001 -57.441)" fill="#00baf5"/>
</svg>
