<svg xmlns="http://www.w3.org/2000/svg" width="14.223" height="9.956" viewBox="0 0 14.223 9.956">
  <g id="Layer-1" transform="translate(-84.55 -85.039)">
    <g id="Group_11334" data-name="Group 11334" transform="translate(84.55 85.039)">
      <path id="Path_9145" data-name="Path 9145" d="M-105.02-70.206a1.781,1.781,0,0,0-1.258-1.257,42.5,42.5,0,0,0-5.557-.3,42.5,42.5,0,0,0-5.557.3,1.781,1.781,0,0,0-1.258,1.257,18.514,18.514,0,0,0-.3,3.424,18.513,18.513,0,0,0,.3,3.423,1.781,1.781,0,0,0,1.258,1.258,42.5,42.5,0,0,0,5.557.3,42.5,42.5,0,0,0,5.557-.3,1.781,1.781,0,0,0,1.258-1.258,18.505,18.505,0,0,0,.3-3.423,18.507,18.507,0,0,0-.3-3.424" transform="translate(118.946 71.761)" fill="red"/>
    </g>
    <g id="Group_11335" data-name="Group 11335" transform="translate(90.239 87.884)">
      <path id="Path_9146" data-name="Path 9146" d="M0,4.267,3.7,2.134,0,0Z" fill="#fff"/>
    </g>
  </g>
</svg>
