<svg xmlns="http://www.w3.org/2000/svg" width="68.477" height="31.324" viewBox="0 0 68.477 31.324">
  <path id="zapier-logo" d="M41.091,13.881H39.384a3.284,3.284,0,0,1-.079-.486,5.569,5.569,0,0,1,0-1.076,3.315,3.315,0,0,1,.079-.486h4.254V25.3a6.357,6.357,0,0,1-.643.078q-.321.025-.644.026t-.617-.026a6.338,6.338,0,0,1-.643-.079V13.881h0ZM55.9,17.269a4.97,4.97,0,0,0-.2-1.405,3.583,3.583,0,0,0-.578-1.168,2.818,2.818,0,0,0-.972-.8,3.051,3.051,0,0,0-1.4-.3,3.094,3.094,0,0,0-2.455.972,4.755,4.755,0,0,0-1.037,2.7H55.9Zm-6.669,1.943a4.4,4.4,0,0,0,1.142,3.229,4.535,4.535,0,0,0,3.216,1.024,9.656,9.656,0,0,0,3.544-.657,3.956,3.956,0,0,1,.341.958,6.249,6.249,0,0,1,.158,1.116,8.768,8.768,0,0,1-1.9.552,13.254,13.254,0,0,1-2.3.184,8.679,8.679,0,0,1-3.151-.512,5.537,5.537,0,0,1-3.414-3.65,9.432,9.432,0,0,1-.394-2.8,9.9,9.9,0,0,1,.381-2.8,6.3,6.3,0,0,1,1.168-2.258A5.645,5.645,0,0,1,50,12.082a6.547,6.547,0,0,1,2.823-.565,5.9,5.9,0,0,1,2.442.473,4.966,4.966,0,0,1,1.759,1.3A5.648,5.648,0,0,1,58.1,15.259a8.067,8.067,0,0,1,.368,2.482q0,.368-.027.774-.022.348-.052.7H49.23Zm12.106-7.378q.274-.05.551-.079c.175-.017.359-.026.551-.026s.385.009.578.026a4.333,4.333,0,0,1,.525.079q.078.394.157,1.037a9.223,9.223,0,0,1,.079,1.09,5.439,5.439,0,0,1,1.457-1.549,3.865,3.865,0,0,1,2.324-.656q.21,0,.433.013c.127.007.255.02.381.039a4.263,4.263,0,0,1,.079.5q.026.262.026.551a5.74,5.74,0,0,1-.039.656q-.038.329-.092.656a1.809,1.809,0,0,0-.433-.052h-.355a4.6,4.6,0,0,0-1.352.2,2.83,2.83,0,0,0-1.155.7,3.46,3.46,0,0,0-.814,1.366,6.891,6.891,0,0,0-.3,2.232v6.7a6.386,6.386,0,0,1-.643.079q-.354.026-.643.026-.322,0-.643-.026-.336-.024-.67-.078V11.833ZM42.908,4.641a2.61,2.61,0,0,1-.168.92,2.613,2.613,0,0,1-.92.167h0a2.611,2.611,0,0,1-.921-.168,2.607,2.607,0,0,1-.167-.92v0a2.61,2.61,0,0,1,.167-.92,2.6,2.6,0,0,1,.921-.167h0a2.6,2.6,0,0,1,.92.167,2.605,2.605,0,0,1,.167.92v0h0Zm3.208-.729H43.572l1.8-1.8a4.376,4.376,0,0,0-1.027-1.027l-1.8,1.8V.341A4.379,4.379,0,0,0,41.821.28h0a4.366,4.366,0,0,0-.724.061V2.885l-1.8-1.8a4.352,4.352,0,0,0-.556.471h0a4.386,4.386,0,0,0-.47.556l1.8,1.8H37.52s-.061.478-.061.725v0a4.36,4.36,0,0,0,.061.725h2.545l-1.8,1.8a4.389,4.389,0,0,0,1.028,1.027l1.8-1.8V8.937A4.4,4.4,0,0,0,41.815,9h.006a4.4,4.4,0,0,0,.723-.061V6.392l1.8,1.8a4.393,4.393,0,0,0,.556-.471h0a4.4,4.4,0,0,0,.47-.556l-1.8-1.8h2.545a4.375,4.375,0,0,0,.06-.723V4.635a4.381,4.381,0,0,0-.06-.723h0ZM0,24.936,7.089,13.907H.84a6.434,6.434,0,0,1-.078-1.05,6.252,6.252,0,0,1,.079-1.024H10.949l.131.342L3.939,23.229h6.7a7.254,7.254,0,0,1,.079,1.076,6.071,6.071,0,0,1-.079,1H.131L0,24.935Zm20.454-5.961q-.394-.052-1-.1t-1.024-.052a4.271,4.271,0,0,0-2.481.6A2.1,2.1,0,0,0,15.1,21.26a2.257,2.257,0,0,0,.289,1.234,1.986,1.986,0,0,0,.722.683,2.5,2.5,0,0,0,.958.289q.525.052,1,.052a12.274,12.274,0,0,0,1.247-.066,7.484,7.484,0,0,0,1.142-.2v-4.28Zm0-2.547a2.563,2.563,0,0,0-.787-2.153,3.7,3.7,0,0,0-2.284-.6,9.7,9.7,0,0,0-1.72.145,13.157,13.157,0,0,0-1.563.38,4.086,4.086,0,0,1-.5-2.074,12.087,12.087,0,0,1,1.969-.446,14.308,14.308,0,0,1,2.074-.158,5.893,5.893,0,0,1,3.991,1.195A4.83,4.83,0,0,1,23,16.533v8.429q-.92.21-2.232.433a15.993,15.993,0,0,1-2.678.223,10.479,10.479,0,0,1-2.324-.236,4.744,4.744,0,0,1-1.759-.762,3.529,3.529,0,0,1-1.116-1.339,4.492,4.492,0,0,1-.394-1.969,4.013,4.013,0,0,1,1.707-3.4,5.563,5.563,0,0,1,1.812-.84,8.242,8.242,0,0,1,2.153-.276q.84,0,1.379.04t.906.092v-.5ZM28.436,23.1a5.152,5.152,0,0,0,1.024.263,9.512,9.512,0,0,0,1.365.079,4.8,4.8,0,0,0,1.732-.3A3.44,3.44,0,0,0,33.91,22.2a4.556,4.556,0,0,0,.893-1.589,7.025,7.025,0,0,0,.328-2.271,6.231,6.231,0,0,0-.775-3.335,2.763,2.763,0,0,0-2.534-1.234,3.42,3.42,0,0,0-1.26.236,3.112,3.112,0,0,0-1.077.709,3.5,3.5,0,0,0-.761,1.195,4.614,4.614,0,0,0-.289,1.72V23.1h0Zm-2.6-11.264q.267-.053.538-.079t.565-.026c.174,0,.358.009.551.026a5.461,5.461,0,0,1,.551.079,1.651,1.651,0,0,1,.066.328q.039.276.079.591c.026.21.052.412.079.6s.039.315.039.368a5.333,5.333,0,0,1,.63-.814,4.209,4.209,0,0,1,.88-.709,4.6,4.6,0,0,1,1.155-.5,5.2,5.2,0,0,1,1.431-.184,5.988,5.988,0,0,1,2.193.394,4.387,4.387,0,0,1,1.732,1.221,5.874,5.874,0,0,1,1.129,2.1,9.925,9.925,0,0,1,.407,3.007,7.507,7.507,0,0,1-1.878,5.422,7.022,7.022,0,0,1-5.317,1.956,9.14,9.14,0,0,1-1.182-.079,7.019,7.019,0,0,1-1.05-.21V31.5q-.333.054-.669.079-.355.026-.644.026-.322,0-.643-.026a6.342,6.342,0,0,1-.643-.079V11.833Z" transform="translate(0 -0.28)" fill="#ff4a00"/>
</svg>
