<svg xmlns="http://www.w3.org/2000/svg" width="356" height="80" viewBox="0 0 356 80">
  <g id="Layer-1" transform="translate(-254 -203)">
    <path id="Path_9551" data-name="Path 9551" d="M543.845,226.975A17.293,17.293,0,0,1,545.8,235l.2,4v28l.2,4A12.29,12.29,0,0,0,558,282.8l4,.2V239l.2-4a17.439,17.439,0,0,1,1.972-8.055,16.006,16.006,0,0,1,27.685.051,17.538,17.538,0,0,1,1.943,8l.2,4v28l.2,4A12.244,12.244,0,0,0,606,282.8l4,.2V235a32,32,0,0,0-56-21.167,32.009,32.009,0,0,0-41.921-5.348C508.967,205.023,502,203,498,203v80l4-.2c6.681-.439,11.539-5.158,11.8-11.8l.2-4V239l.2-4a17.459,17.459,0,0,1,1.963-8.039,16.005,16.005,0,0,1,27.682.014M270,282.8l4,.2h60l-.2-4c-.535-6.586-5.2-11.391-11.8-11.8l-4-.2H282l48-48-.2-3.995A12.1,12.1,0,0,0,318,203.2l-4-.2-60,0,.2,4a12.412,12.412,0,0,0,11.795,11.8L270,219h36l-48,48,.2,4A12.231,12.231,0,0,0,270,282.8m212.284-68.084A40,40,0,1,1,453.975,203a40,40,0,0,1,28.309,11.716m-11.313,11.313a24,24,0,1,1-33.941,0,24,24,0,0,1,33.941,0M370.025,203a40,40,0,1,1-.05,0Zm16.946,23.029a24,24,0,1,1-33.942,0,24,24,0,0,1,33.942,0" fill="#2489ff" fill-rule="evenodd"/>
  </g>
</svg>
